<svg width="14" height="14" viewBox="0 0 14 14" fill="none" xmlns="http://www.w3.org/2000/svg"><mask id="a" fill="#fff"><path fill-rule="evenodd" clip-rule="evenodd" d="M13.542 1.872A1 1 0 1012.128.458l-5.15 5.15L1.83.457A1 1 0 10.415 1.872l5.15 5.15-5.15 5.149a1 1 0 101.414 1.414l5.15-5.15 5.149 5.15a1 1 0 001.414-1.414l-5.15-5.15 5.15-5.149z"/></mask><path d="M13.542.458l-1.414 1.414L13.542.458zm0 1.414L12.128.458l1.414 1.414zM12.128.458l1.414 1.414L12.128.458zm-5.15 5.15L5.564 7.021l1.414 1.414 1.415-1.414-1.415-1.415zM1.83.457L3.243-.956 1.83.458zm-1.414 0L-1-.956.415.458zm0 1.414L1.829.458.415 1.872zm5.15 5.15l1.413 1.414 1.415-1.414-1.415-1.415-1.414 1.415zM.414 12.17l1.414 1.414L.414 12.17zm0 1.414l1.414-1.414-1.414 1.414zm1.414 0L.415 12.171l1.414 1.414zm5.15-5.15l1.414-1.413-1.415-1.415-1.414 1.415 1.414 1.414zm5.149 5.15l1.414-1.414-1.414 1.414zm1.414 0l-1.414-1.414 1.414 1.414zm0-1.414l-1.414 1.414 1.414-1.414zm-5.15-5.15L6.979 5.608 5.564 7.022l1.414 1.414 1.415-1.414zm3.736-5.149a1 1 0 010-1.414l2.828 2.828a3 3 0 000-4.242l-2.828 2.828zm1.414 0a1 1 0 01-1.414 0l2.828-2.828a3 3 0 00-4.242 0l2.828 2.828zm-5.15 5.15l5.15-5.15-2.828-2.828-5.15 5.15 2.829 2.828zM.416 1.872l5.15 5.15 2.828-2.829-5.15-5.15-2.828 2.83zm1.414 0a1 1 0 01-1.414 0L3.243-.956a3 3 0 00-4.242 0l2.828 2.828zm0-1.414a1 1 0 010 1.414L-.999-.956a3 3 0 000 4.242L1.829.458zm5.15 5.15L1.828.457-.999 3.286l5.149 5.15 2.828-2.829zm-5.15 7.977l5.15-5.15-2.83-2.827L-1 10.757l2.829 2.828zm0-1.414a1 1 0 010 1.414l-2.828-2.828a3 3 0 000 4.242l2.828-2.828zm-1.414 0a1 1 0 011.414 0l-2.828 2.828a3 3 0 004.242 0L.415 12.171zm5.15-5.15l-5.15 5.15 2.828 2.828 5.15-5.149-2.829-2.828zm7.977 5.15l-5.15-5.15L5.565 9.85l5.15 5.15 2.828-2.829zm-1.414 0a1 1 0 011.414 0l-2.828 2.828a3 3 0 004.242 0l-2.828-2.828zm0 1.414a1 1 0 010-1.414l2.828 2.828a3 3 0 000-4.242l-2.828 2.828zm-5.15-5.15l5.15 5.15 2.828-2.828-5.15-5.15-2.828 2.829zm5.15-7.977l-5.15 5.15 2.829 2.828 5.15-5.15-2.83-2.828z" fill="#426ED1" mask="url(#a)"/></svg>