<svg width="34" height="30" viewBox="0 0 34 30" fill="none" xmlns="http://www.w3.org/2000/svg"><rect x=".875" width="32.25" height="30" rx="15" fill="#DBA391"/><g opacity=".2" fill="#000"><path d="M7.82 8.754c.232-.72.93-1.2 1.652-1.338.179.59.138 1.242-.107 1.807a1.998 1.998 0 01-1.473 1.219c-.23-.527-.276-1.145-.072-1.688zm-2.625 1.991c-.189-.717.127-1.487.643-1.992.563.467.918 1.173.956 1.903.014.55-.192 1.11-.593 1.492-.495-.319-.883-.822-1.006-1.403zm4.797-.251a2.674 2.674 0 00-1.483.557c-.214.177-.425.368-.56.614-.246.396-.347.88-.27 1.34.73.058 1.488-.248 1.94-.83.349-.478.466-1.1.373-1.68z"/><path d="M7.449 10.768c.047.04.1.078.152.116.093.068.187.136.257.222-.605.883-.9 1.947-.993 3.005-.089 1.071.062 2.153.363 3.182.534 1.82 1.523 3.47 2.666 4.969l-.104.08c-.106.082-.21.163-.318.242-.84-1.108-1.597-2.287-2.156-3.563a11.531 11.531 0 01-.829-2.683c-.28-1.56-.155-3.21.473-4.674.136-.312.297-.614.489-.896zm-3.071.492a2.959 2.959 0 00-.223.56l-.023.11c-.087.456-.046.949.179 1.362a2.32 2.32 0 001.419 1.106c.264-.48.3-1.066.13-1.584a2.68 2.68 0 00-1.482-1.554z"/><path d="M7.212 14.83c.282-.848 1.087-1.466 1.953-1.63.17.569.13 1.21-.162 1.733-.36.599-1.02.986-1.71 1.05l-.028.002c-.035.004-.075.008-.077-.038a1.961 1.961 0 01.024-1.116zm-1.695.143a2.653 2.653 0 00-1.553-.874c-.159.572-.11 1.212.192 1.73.384.621 1.097.998 1.82 1.029.195-.653-.005-1.386-.46-1.885zm2.482 1.844a2.69 2.69 0 011.627-1.34c.225.552.247 1.197 0 1.745-.314.658-.979 1.112-1.693 1.22A2 2 0 018 16.817zm1.984.883a2.678 2.678 0 00-1.172 1.73c-.097.556.04 1.155.4 1.596.656-.308 1.163-.936 1.273-1.657.078-.596-.13-1.204-.501-1.668zm-6.041-.719a2.636 2.636 0 011.738.36c.59.33 1.007.98 1.01 1.663-.564.14-1.188.096-1.696-.198-.665-.341-1.027-1.1-1.052-1.825zm2.92 2.845a2.647 2.647 0 00-1.753-.143c.11.707.547 1.404 1.232 1.673.515.23 1.116.222 1.644.04a.113.113 0 01.033-.014c.033-.011.07-.023.058-.061a1.994 1.994 0 00-1.214-1.495z"/></g><path d="M15.86 19.656c-.224 0-.442-.012-.654-.036a6.773 6.773 0 01-1.194-.264 6.291 6.291 0 01-.528-.198l.162-1.662a4.488 4.488 0 001.038.45c.18.048.358.084.534.108.18.024.352.036.516.036.456 0 .818-.102 1.086-.306.272-.208.466-.524.582-.948.116-.424.174-.96.174-1.608 0-.608-.06-1.102-.18-1.482-.12-.384-.29-.666-.51-.846a1.21 1.21 0 00-.792-.27c-.292 0-.532.064-.72.192a1.14 1.14 0 00-.42.492 1.601 1.601 0 00-.138.666c0 .24.044.454.132.642.092.188.23.338.414.45.184.108.418.162.702.162.12 0 .242-.01.366-.03.128-.02.258-.056.39-.108s.262-.122.39-.21c.132-.092.264-.21.396-.354.148.184.244.338.288.462a.498.498 0 010 .372 2.108 2.108 0 01-.27.474l-.21-.012a2.632 2.632 0 01-.834.54 2.87 2.87 0 01-.516.15 3.358 3.358 0 01-.576.048c-.496 0-.934-.104-1.314-.312a2.227 2.227 0 01-.882-.882c-.208-.38-.312-.83-.312-1.35 0-.504.108-.98.324-1.428.216-.452.546-.818.99-1.098.448-.28 1.022-.42 1.722-.42.74 0 1.36.158 1.86.474.5.316.876.786 1.128 1.41.252.62.378 1.39.378 2.31 0 .764-.086 1.424-.258 1.98-.168.556-.408 1.012-.72 1.368a2.862 2.862 0 01-1.11.786c-.432.168-.91.252-1.434.252z" fill="#000"/><g opacity=".2" fill="#000"><path d="M25.18 8.754c-.232-.72-.93-1.2-1.652-1.338a2.651 2.651 0 00.107 1.807 1.998 1.998 0 001.473 1.219c.23-.527.276-1.145.072-1.688zm2.625 1.991c.189-.717-.127-1.487-.642-1.992a2.685 2.685 0 00-.957 1.903c-.014.55.192 1.11.593 1.492.495-.319.883-.822 1.006-1.403zm-4.797-.251c.536.029 1.06.229 1.483.557.214.177.425.368.561.614.245.396.346.88.268 1.34-.729.058-1.487-.248-1.938-.83-.35-.478-.467-1.1-.374-1.68z"/><path d="M25.552 10.768c-.048.04-.1.078-.152.116a1.32 1.32 0 00-.258.222c.605.883.9 1.947.993 3.005.089 1.071-.062 2.153-.363 3.182-.534 1.82-1.523 3.47-2.666 4.969l.104.08c.106.082.21.163.318.242.84-1.108 1.597-2.287 2.156-3.563.378-.858.67-1.758.829-2.683.28-1.56.155-3.21-.473-4.674a5.465 5.465 0 00-.488-.896zm3.07.492a3 3 0 01.223.56l.023.11c.087.456.046.949-.179 1.362a2.319 2.319 0 01-1.419 1.106 2.011 2.011 0 01-.13-1.584 2.68 2.68 0 011.482-1.554z"/><path d="M25.788 14.83c-.282-.848-1.087-1.466-1.953-1.63-.17.569-.13 1.21.162 1.733.36.599 1.02.986 1.71 1.05l.028.002c.035.004.075.008.077-.038a1.962 1.962 0 00-.024-1.116zm1.695.143a2.658 2.658 0 011.553-.874c.159.572.11 1.212-.192 1.73-.384.621-1.097.998-1.82 1.029-.195-.653.005-1.386.46-1.885zm-2.481 1.844a2.69 2.69 0 00-1.628-1.34c-.225.552-.246 1.197 0 1.745.314.658.979 1.112 1.693 1.22A2 2 0 0025 16.817zm-1.985.883a2.678 2.678 0 011.172 1.73 2.006 2.006 0 01-.4 1.596c-.656-.308-1.163-.936-1.273-1.657-.077-.596.13-1.204.502-1.668zm6.041-.719a2.636 2.636 0 00-1.738.36c-.59.33-1.007.98-1.01 1.663.564.14 1.188.096 1.696-.198.665-.341 1.027-1.1 1.052-1.825zm-2.92 2.845a2.648 2.648 0 011.753-.143c-.11.707-.547 1.404-1.232 1.673-.515.23-1.116.222-1.644.04a.113.113 0 00-.033-.014c-.033-.011-.07-.023-.058-.061a1.994 1.994 0 011.214-1.495z"/></g><rect x="1.375" y=".5" width="31.25" height="29" rx="14.5" stroke="#000" stroke-opacity=".1"/></svg>