<svg width="24" height="24" viewBox="0 0 24 24" fill="none" xmlns="http://www.w3.org/2000/svg">
<path fill-rule="evenodd" clip-rule="evenodd" d="M6.53058 4H17.4876C17.9063 4 18.2553 4.06987 18.674 4.27948C19.1625 4.48908 19.4417 4.83843 19.5813 5.1179C19.5813 5.1179 19.5813 5.18777 19.6511 5.18777C19.8604 5.53712 20 5.95633 20 6.44541C20 6.86463 19.9302 7.28384 19.6511 7.70306L12.7419 19.5808C12.6023 19.8603 12.3231 20 11.9742 20C11.695 20 11.4159 19.8603 11.2065 19.5808L4.43689 7.70306C4.29731 7.42358 4.01815 7.07424 4.01815 6.51528C3.94836 6.0262 4.08794 5.60699 4.29731 5.18777C4.50668 4.76856 4.85563 4.41921 5.34416 4.27948C5.7629 4 6.25143 4 6.53058 4ZM11.1367 5.67686H6.53058C6.25143 5.67686 6.11185 5.67686 6.04206 5.74672C5.90248 5.81659 5.83269 5.88646 5.7629 6.0262C5.69311 6.09607 5.69311 6.23581 5.69311 6.37555C5.69311 6.44541 5.7629 6.51528 5.90248 6.79476L11.1367 15.8777V5.67686ZM12.8117 5.67686V15.9476L18.1157 6.79476C18.1855 6.65502 18.1855 6.51528 18.1855 6.37555C18.1855 6.23581 18.1855 6.09607 18.1157 6.0262C18.0459 5.95633 18.0459 5.88646 17.9761 5.88646L17.9063 5.81659C17.7667 5.74673 17.6271 5.74672 17.4178 5.74672H12.8117V5.67686Z" fill="white"/>
</svg>
