<svg width="536" height="386" viewBox="0 0 536 386" fill="none" xmlns="http://www.w3.org/2000/svg">
<g clip-path="url(#clip0_1734_27690)">
<path opacity="0.1" d="M437.185 384.229C469.089 384.229 494.952 380.897 494.952 376.786C494.952 372.676 469.089 369.344 437.185 369.344C405.281 369.344 379.418 372.676 379.418 376.786C379.418 380.897 405.281 384.229 437.185 384.229Z" fill="#F50057"/>
<path opacity="0.1" d="M17.5754 172.83H65.7928V238.612H21.1053C20.9865 239.287 20.8725 239.967 20.749 240.647H65.7928V293.699C65.7121 293.675 65.6408 293.647 65.5648 293.618C64.2915 293.114 63.0278 292.582 61.764 292.011L60.9564 291.645C59.6894 291.045 58.4225 290.411 57.1556 289.743C56.7138 289.509 56.2719 289.267 55.8348 289.02C48.8014 285.076 42.412 280.079 36.888 274.202C36.7265 274.045 36.5744 273.878 36.4129 273.726C35.6433 272.889 34.8879 272.043 34.1562 271.177L33.3485 270.226C32.4839 269.166 31.6477 268.077 30.8353 266.973C30.7165 266.812 30.6025 266.65 30.479 266.498C27.1749 261.912 24.4315 256.947 22.3073 251.708C22.2408 251.551 22.1838 251.38 22.122 251.233C21.4696 249.553 20.8915 247.856 20.3879 246.144C20.1694 245.426 19.9603 244.718 19.7798 243.971C19.7133 243.752 19.6563 243.538 19.604 243.324C16.9055 232.782 16.5872 221.83 16.5872 210.954C16.5872 209.684 16.5872 208.41 16.5872 207.15C16.5872 202.751 16.6394 198.324 16.7154 193.901C16.7154 192.755 16.7629 191.614 16.7867 190.463C16.8532 187.543 16.9482 184.623 17.0718 181.703C17.1003 180.89 17.1383 180.082 17.181 179.273C17.181 178.807 17.2048 178.341 17.2523 177.875C17.3663 176.182 17.4613 174.504 17.5754 172.83Z" fill="#F50057"/>
<path opacity="0.1" d="M65.7928 99.586H39.3442C43.6436 92.8502 48.3412 86.3776 53.4118 80.2027C57.3409 75.3712 61.4885 70.6633 65.7928 66.1266V99.586Z" fill="#F50057"/>
<path opacity="0.1" d="M65.7928 101.621V170.794H17.7273C17.7273 170.594 17.7606 170.39 17.7748 170.19C17.8176 169.643 17.8603 169.097 17.9078 168.554C17.9601 167.917 18.0171 167.275 18.0789 166.652C18.1406 166.029 18.2071 165.268 18.2784 164.579C18.3497 163.889 18.4162 163.19 18.4969 162.501C18.5777 161.811 18.649 161.122 18.7345 160.437C18.82 159.752 18.896 159.058 18.9863 158.373C19.0576 157.802 19.1336 157.236 19.2096 156.666C19.3189 155.862 19.4329 155.054 19.5564 154.255C19.5564 154.136 19.5897 154.012 19.6087 153.898C20.4758 148.05 21.6573 142.252 23.1481 136.531C24.7086 130.53 26.7013 124.649 29.1106 118.936C31.6712 112.959 34.6693 107.18 38.0804 101.645L65.7928 101.621Z" fill="#F50057"/>
<path opacity="0.6" d="M77.3042 172.825V238.612H180.291V172.825H77.3042ZM77.3042 240.642V297.137C77.8933 297.261 78.4777 297.38 79.0573 297.48C79.846 297.632 80.6299 297.77 81.4328 297.889C81.5848 297.912 81.7416 297.936 81.9079 297.95C82.2214 298.003 82.5445 298.045 82.8581 298.088C83.6515 298.198 84.4401 298.288 85.2336 298.359C85.6089 298.397 85.989 298.431 86.369 298.459L87.286 298.531C87.7848 298.569 88.2789 298.597 88.7683 298.611C89.0723 298.611 89.3764 298.64 89.6899 298.649C89.9275 298.649 90.165 298.649 90.4121 298.649C90.6591 298.649 91.0107 298.649 91.31 298.649C91.7186 298.649 92.1272 298.649 92.531 298.649H93.0774C93.486 298.649 93.8946 298.649 94.2984 298.611H94.3269C94.6072 298.611 94.8922 298.611 95.1773 298.573C95.2564 298.578 95.3357 298.578 95.4149 298.573C95.6524 298.573 95.8899 298.573 96.118 298.54H96.2843L97.8759 298.416C98.3985 298.369 98.9258 298.307 99.4579 298.25L100.541 298.122C104.948 297.503 109.306 296.575 113.583 295.344C123.189 292.662 132.586 288.91 142.188 286.162C154.602 282.619 168.318 280.878 180.314 285.21V240.642H77.3042ZM180.291 99.586V12.0047C169.015 11.8825 157.771 13.2025 146.83 15.9327C120.752 22.4905 97.3532 36.7141 77.3042 54.8799V99.5812H82.4732V101.612H77.3042V170.794H180.291V101.617H103.696V99.586H180.291ZM312.572 70.0023C306.12 69.774 299.706 67.7292 293.905 64.5715C282.812 58.5321 273.951 49.2067 264.05 41.3364C243.479 24.9443 217.966 15.053 191.793 12.5992V99.586H338.811L339.177 99.2008L312.572 70.0023ZM325.965 67.6246L340.165 83.2225V63.5349C335.41 64.1245 331.243 65.5274 325.984 67.6055L325.965 67.6246ZM340.165 311.166V240.642H309.906C309.826 240.343 309.745 240.038 309.65 239.734C309.74 240.038 309.816 240.343 309.902 240.642H191.812V291.645C192.933 292.477 194.04 293.352 195.137 294.241C196.32 295.192 197.489 296.196 198.663 297.18L199.846 298.16C200.411 298.635 200.981 299.111 201.556 299.558C202.696 300.483 203.848 301.396 205.01 302.297C205.585 302.772 206.174 303.2 206.758 303.647C216.036 310.747 225.822 317.154 236.038 322.817C238.328 324.085 240.639 325.323 242.97 326.531C244.524 327.325 246.087 328.114 247.655 328.88C250.011 330.031 252.387 331.14 254.781 332.209C276.857 342.128 300.201 348.934 324.145 352.434C329.463 353.22 334.801 353.838 340.161 354.288V311.161H340.636L340.165 311.166ZM191.812 101.617V170.794H340.184V101.617H191.812ZM191.812 172.825V238.612H340.184V172.825H191.812ZM351.701 63.4493V85.41L369.826 65.5036C363.82 64.5335 357.779 63.8408 351.701 63.4255V63.4493ZM351.701 172.849V238.612H496.011V172.825L351.701 172.849ZM495.484 316.387L495.992 240.642H351.701V355.044C360.996 355.435 370.305 355.324 379.589 354.711H379.75C384.184 354.432 388.598 354.027 392.991 353.494H393.091C416.528 350.764 439.445 344.643 461.125 335.324M523.837 183.658C523.296 182.378 522.73 181.109 522.156 179.853C521.082 177.476 519.946 175.164 518.778 172.853H507.518V238.612H535.986C535.971 219.989 531.263 200.968 523.852 183.634L523.837 183.658ZM507.518 240.666V305.816C515.537 298.122 522.312 289.319 527.191 279.257C533.059 267.14 535.743 254.019 535.962 240.657L507.518 240.666ZM507.518 153.679V170.799H517.723C514.636 164.906 511.234 159.183 507.532 153.656L507.518 153.679ZM409.648 76.3556C408.897 76.0703 408.147 75.7802 407.391 75.4996C399.424 72.5547 391.283 70.1057 383.014 68.1667L355.278 98.6349L354.746 99.2008L355.102 99.5907H453.818C440.069 90.1181 425.247 82.3106 409.662 76.3318L409.648 76.3556ZM456.711 101.64H353.724L351.701 103.495V170.794H369.441H369.469H496.03V138.196C484.581 124.336 471.367 112.038 456.725 101.617L456.711 101.64Z" fill="white"/>
<path opacity="0.1" d="M65.7928 136.512V170.794H17.7273C17.7273 170.595 17.7606 170.39 17.7748 170.19C17.8176 169.643 17.8603 169.097 17.9078 168.554C17.9601 167.917 18.0171 167.275 18.0789 166.652C18.1406 166.029 18.2071 165.268 18.2784 164.579C18.3497 163.889 18.4162 163.19 18.4969 162.501C18.5777 161.811 18.649 161.122 18.7345 160.437C18.82 159.752 18.896 159.058 18.9863 158.373C19.0576 157.802 19.1336 157.236 19.2096 156.666C19.3189 155.862 19.4329 155.054 19.5564 154.255C19.5564 154.136 19.5897 154.012 19.6087 153.898C20.4758 148.05 21.6573 142.252 23.1481 136.531L65.7928 136.512Z" fill="#F50057"/>
<path opacity="0.1" d="M17.5754 172.83H65.7928V238.612H21.1053C20.9865 239.287 20.8725 239.967 20.749 240.647H65.7928V293.699C65.7121 293.675 65.6408 293.647 65.5648 293.618C64.2915 293.114 63.0278 292.582 61.764 292.011L60.9564 291.645C59.6894 291.045 58.4225 290.411 57.1556 289.743C56.7138 289.509 56.2719 289.267 55.8348 289.02C48.8014 285.076 42.412 280.079 36.888 274.202C36.7265 274.045 36.5744 273.878 36.4129 273.726C35.6433 272.889 34.8879 272.043 34.1562 271.177L33.3485 270.226C32.4839 269.166 31.6477 268.077 30.8353 266.973C30.7165 266.812 30.6025 266.65 30.479 266.498C27.1749 261.912 24.4315 256.947 22.3073 251.708C22.2408 251.551 22.1838 251.38 22.122 251.233C21.4696 249.553 20.8915 247.856 20.3879 246.144C20.1694 245.426 19.9603 244.718 19.7798 243.971C19.7133 243.752 19.6563 243.538 19.604 243.324C16.9055 232.782 16.5872 221.83 16.5872 210.954C16.5872 209.684 16.5872 208.41 16.5872 207.15C16.5872 202.751 16.6394 198.324 16.7154 193.901C16.7154 192.755 16.7629 191.614 16.7867 190.463C16.8532 187.543 16.9482 184.623 17.0718 181.703C17.1003 180.89 17.1383 180.082 17.181 179.273C17.181 178.807 17.2048 178.341 17.2523 177.875C17.3663 176.182 17.4613 174.504 17.5754 172.83Z" fill="#F50057"/>
<path opacity="0.1" d="M113.559 111.522V170.794H77.3042V111.522H82.4732V91.4542H103.691V111.522H113.559Z" fill="#F50057"/>
<path opacity="0.1" d="M113.559 172.825H77.3091V238.607H113.559V172.825Z" fill="#F50057"/>
<path opacity="0.1" d="M77.3042 240.647H113.559V295.335C109.282 296.565 104.924 297.491 100.517 298.107L99.4342 298.24C98.9021 298.302 98.3747 298.355 97.8521 298.407C97.3295 298.459 96.7879 298.497 96.2605 298.531H96.0942C95.8662 298.531 95.6191 298.559 95.3959 298.564H95.1535C94.8685 298.564 94.5834 298.592 94.2984 298.602C93.8946 298.626 93.4907 298.63 93.0774 298.635C92.9016 298.635 92.7353 298.635 92.5595 298.635C92.1509 298.635 91.7471 298.635 91.3385 298.635H90.4406C90.1983 298.635 89.9655 298.635 89.7137 298.635L88.7968 298.602C88.3217 298.602 87.8086 298.55 87.3145 298.516L86.4023 298.45L85.2668 298.345C84.4686 298.274 83.6752 298.183 82.8913 298.074L81.9411 297.941L81.466 297.874C80.6726 297.751 79.8887 297.618 79.0906 297.465C78.5062 297.365 77.9266 297.242 77.3375 297.123L77.3042 240.647Z" fill="#F50057"/>
<path opacity="0.1" d="M340.185 104.522H310.292V170.789H340.185V104.522Z" fill="#F50057"/>
<path opacity="0.1" d="M340.189 172.825V238.612H191.812V210.236H270.844V226.975H310.291V172.825H340.189Z" fill="#F50057"/>
<path opacity="0.1" d="M340.66 311.18H340.184V354.336C334.832 353.882 329.495 353.266 324.174 352.486C300.218 348.975 276.864 342.154 254.781 332.218C248.405 329.346 242.159 326.21 236.043 322.812C225.827 317.147 216.039 310.74 206.759 303.643C204.427 301.855 202.126 300.025 199.855 298.155C198.283 296.857 196.72 295.525 195.138 294.232C194.04 293.342 192.933 292.467 191.812 291.63V240.647H309.897C309.816 240.343 309.736 240.038 309.65 239.739C309.74 240.038 309.826 240.343 309.907 240.647H340.184V311.152C340.346 311.156 340.503 311.171 340.66 311.18Z" fill="#F50057"/>
<path opacity="0.1" d="M418.148 99.586H398.669V93.5276H407.401V75.4806C408.158 75.7564 408.912 76.0402 409.663 76.3318V93.5276H418.148V99.586Z" fill="#F50057"/>
<path opacity="0.1" d="M465.078 170.794H369.45C369.45 170.794 369.45 170.794 369.484 170.818L369.441 170.794H351.701V104.527H356.727V153.508H379.698V124.5H398.673V101.621H418.152V124.519H437.128V153.527H465.078V170.794Z" fill="#F50057"/>
<path opacity="0.1" d="M351.701 172.825V238.612H465.078V172.825H351.701ZM495.854 316.05L496.011 263.977H465.078V240.676H351.701V355.044C360.996 355.435 370.306 355.324 379.589 354.712H379.75C384.185 354.433 388.598 354.027 392.991 353.494H393.091C416.528 350.764 439.445 344.643 461.125 335.324" fill="#F50057"/>
<path opacity="0.1" d="M509.532 240.647H535.981C535.748 254.005 533.069 267.126 527.206 279.242C522.327 289.31 515.547 298.112 507.537 305.802V263.954H509.532V240.647Z" fill="#F50057"/>
<path opacity="0.1" d="M535.995 238.612H509.532V183.634H523.852C531.263 200.968 535.971 219.989 535.995 238.612Z" fill="#F50057"/>
<path opacity="0.1" d="M340.189 122.945H324.174V143.721H340.189V122.945Z" fill="#F50057"/>
<path opacity="0.1" d="M340.189 166.01H324.174V170.794H340.189V166.01Z" fill="#F50057"/>
<path opacity="0.1" d="M340.189 172.825H324.174V186.782H340.189V172.825Z" fill="#F50057"/>
<path opacity="0.1" d="M340.189 209.076H324.174V229.852H340.189V209.076Z" fill="#F50057"/>
<path opacity="0.1" d="M340.189 252.141H324.174V272.918H340.189V252.141Z" fill="#F50057"/>
<path opacity="0.1" d="M340.185 311.152C340.346 311.152 340.503 311.152 340.66 311.18H340.185V316.007H324.174V295.206H340.185V311.152Z" fill="#F50057"/>
<path opacity="0.1" d="M340.185 338.262V354.312C334.832 353.859 329.495 353.242 324.174 352.462V338.262H340.185Z" fill="#F50057"/>
<path opacity="0.1" d="M260.449 237.085H191.812V238.612H260.449V237.085Z" fill="#F50057"/>
<path opacity="0.1" d="M260.449 240.642H191.812V246.492H260.449V240.642Z" fill="#F50057"/>
<path opacity="0.1" d="M260.449 265.666H191.812V275.072H260.449V265.666Z" fill="#F50057"/>
<path opacity="0.1" d="M260.444 294.246V303.652H206.758C204.427 301.87 202.125 300.041 199.851 298.164C198.278 296.866 196.72 295.535 195.133 294.246H260.444Z" fill="#F50057"/>
<path opacity="0.1" d="M260.444 322.821V332.218H254.776C248.407 329.343 242.163 326.206 236.043 322.807L260.444 322.821Z" fill="#F50057"/>
<path opacity="0.1" d="M393.105 179.202H379.594V192.726H393.105V179.202Z" fill="#F50057"/>
<path opacity="0.1" d="M100.551 116.187H87.0391V129.712H100.551V116.187Z" fill="#F50057"/>
<path opacity="0.1" d="M100.551 147.602H87.0391V161.126H100.551V147.602Z" fill="#F50057"/>
<path opacity="0.1" d="M100.551 179.016H87.0391V192.541H100.551V179.016Z" fill="#F50057"/>
<path opacity="0.1" d="M100.551 210.426H87.0391V223.951H100.551V210.426Z" fill="#F50057"/>
<path opacity="0.1" d="M100.551 241.841H87.0391V255.365H100.551V241.841Z" fill="#F50057"/>
<path opacity="0.1" d="M100.551 273.255H87.0391V286.78H100.551V273.255Z" fill="#F50057"/>
<path opacity="0.1" d="M444.687 179.202H431.175V192.726H444.687V179.202Z" fill="#F50057"/>
<path opacity="0.1" d="M393.105 212.561H379.594V226.086H393.105V212.561Z" fill="#F50057"/>
<path opacity="0.1" d="M444.687 212.561H431.175V226.086H444.687V212.561Z" fill="#F50057"/>
<path opacity="0.1" d="M393.105 245.916H379.594V259.441H393.105V245.916Z" fill="#F50057"/>
<path opacity="0.1" d="M444.687 245.916H431.175V259.441H444.687V245.916Z" fill="#F50057"/>
<path opacity="0.1" d="M393.105 279.276H379.594V292.8H393.105V279.276Z" fill="#F50057"/>
<path opacity="0.1" d="M444.687 279.276H431.175V292.8H444.687V279.276Z" fill="#F50057"/>
<path opacity="0.1" d="M393.105 312.635H379.594V326.16H393.105V312.635Z" fill="#F50057"/>
<path opacity="0.1" d="M444.687 312.635H431.175V326.16H444.687V312.635Z" fill="#F50057"/>
<path opacity="0.1" d="M379.594 354.711V345.99H393.101V353.47L379.594 354.711Z" fill="#F50057"/>
<path opacity="0.1" d="M19.5518 153.889V161.626H65.7928V153.889H19.5518ZM24.1602 161.141H20.3879V154.364H24.1887L24.1602 161.141ZM28.7639 161.141H24.9631V154.364H28.7639V161.141ZM33.358 161.141H29.5573V154.364H33.358V161.141ZM37.9617 161.141H34.1657V154.364H37.9665L37.9617 161.141ZM42.5607 161.141H38.7599V154.364H42.5607V161.141ZM47.1643 161.141H43.3636V154.364H47.1643V161.141ZM51.768 161.141H47.9672V154.364H51.768V161.141ZM56.3669 161.141H52.5662V154.364H56.3669V161.141ZM60.9659 161.141H57.1651V154.364H60.9659V161.141ZM65.5648 161.141H61.764V154.364H65.5648V161.141Z" fill="#F50057"/>
<path opacity="0.1" d="M19.5518 176.401V184.138H65.7928V176.401H19.5518ZM24.1602 183.648H20.3879V176.891H24.1887L24.1602 183.648ZM28.7639 183.648H24.9631V176.891H28.7639V183.648ZM33.358 183.648H29.5573V176.891H33.358V183.648ZM37.9617 183.648H34.1657V176.891H37.9665L37.9617 183.648ZM42.5607 183.648H38.7599V176.891H42.5607V183.648ZM47.1643 183.648H43.3636V176.891H47.1643V183.648ZM51.768 183.648H47.9672V176.891H51.768V183.648ZM56.3669 183.648H52.5662V176.891H56.3669V183.648ZM60.9659 183.648H57.1651V176.891H60.9659V183.648ZM65.5648 183.648H61.764V176.891H65.5648V183.648Z" fill="#F50057"/>
<path opacity="0.1" d="M19.5518 198.923V206.674H65.7928V198.923H19.5518ZM24.1602 206.17H20.3879V199.408H24.1887L24.1602 206.17ZM28.7639 206.17H24.9631V199.408H28.7639V206.17ZM33.358 206.17H29.5573V199.408H33.358V206.17ZM37.9617 206.17H34.1657V199.408H37.9665L37.9617 206.17ZM42.5607 206.17H38.7599V199.408H42.5607V206.17ZM47.1643 206.17H43.3636V199.408H47.1643V206.17ZM51.768 206.17H47.9672V199.408H51.768V206.17ZM56.3669 206.17H52.5662V199.408H56.3669V206.17ZM60.9659 206.17H57.1651V199.408H60.9659V206.17ZM65.5648 206.17H61.764V199.408H65.5648V206.17Z" fill="#F50057"/>
<path opacity="0.1" d="M19.5518 221.445V229.172H65.7928V221.445H19.5518ZM24.1602 228.692H20.3879V221.925H24.1887L24.1602 228.692ZM28.7639 228.692H24.9631V221.925H28.7639V228.692ZM33.358 228.692H29.5573V221.925H33.358V228.692ZM37.9617 228.692H34.1657V221.925H37.9665L37.9617 228.692ZM42.5607 228.692H38.7599V221.925H42.5607V228.692ZM47.1643 228.692H43.3636V221.925H47.1643V228.692ZM51.768 228.692H47.9672V221.925H51.768V228.692ZM56.3669 228.692H52.5662V221.925H56.3669V228.692ZM60.9659 228.692H57.1651V221.925H60.9659V228.692ZM65.5648 228.692H61.764V221.925H65.5648V228.692Z" fill="#F50057"/>
<path opacity="0.1" d="M19.7512 243.962C19.9365 244.689 20.1455 245.417 20.3641 246.135V244.447H24.1649V251.209H22.1314C22.1932 251.366 22.255 251.537 22.3167 251.685H65.7928V243.962H19.7512ZM28.778 251.209H24.9773V244.447H28.778V251.209ZM33.3722 251.209H29.5715V244.447H33.3722V251.209ZM37.9759 251.209H34.1656V244.447H37.9664L37.9759 251.209ZM42.5748 251.209H38.7741V244.447H42.5748V251.209ZM47.1785 251.209H43.3777V244.447H47.1785V251.209ZM51.7822 251.209H47.9814V244.447H51.7822V251.209ZM56.3811 251.209H52.5803V244.447H56.3811V251.209ZM60.98 251.209H57.1793V244.447H60.98V251.209ZM65.579 251.209H61.7782V244.447H65.579V251.209Z" fill="#F50057"/>
<path opacity="0.1" d="M30.4883 266.484C30.6071 266.636 30.7211 266.807 30.8446 266.959H33.3579V270.207C33.6287 270.53 33.8947 270.854 34.1703 271.158V266.94H37.971V273.726H36.4317C36.5838 273.883 36.731 274.049 36.9068 274.202H65.8069V266.484H30.4883ZM42.5605 273.726H38.7597V266.969H42.5605V273.726ZM47.1641 273.726H43.3634V266.969H47.1641V273.726ZM51.7678 273.726H47.9671V266.969H51.7678V273.726ZM56.3668 273.726H52.566V266.969H56.3668V273.726ZM60.9657 273.726H57.1649V266.969H60.9657V273.726ZM65.5646 273.726H61.7638V266.969H65.5646V273.726Z" fill="#F50057"/>
<path opacity="0.1" d="M55.854 289.001C56.2863 289.248 56.7282 289.476 57.1748 289.723V289.486H60.9755V291.626L61.7832 292.001V289.486H65.584V293.599C65.6569 293.635 65.7333 293.664 65.812 293.685V289.001H55.854Z" fill="#F50057"/>
<path opacity="0.1" d="M369.45 170.794H369.479H369.45ZM340.184 311.147H340.659H340.184ZM309.65 239.734C309.74 240.038 309.816 240.343 309.902 240.642C309.826 240.343 309.745 240.038 309.65 239.734ZM369.45 170.78H369.479H369.45ZM82.4922 99.5718V101.602H103.715V99.5718H82.4922ZM340.184 311.147H340.659H340.184ZM309.65 239.734C309.74 240.038 309.816 240.343 309.902 240.642C309.826 240.343 309.745 240.038 309.65 239.734ZM369.45 170.78H369.479H369.45ZM340.184 311.133H340.659H340.184ZM309.65 239.734C309.74 240.038 309.816 240.343 309.902 240.642C309.826 240.343 309.745 240.038 309.65 239.734Z" fill="#F50057"/>
<path d="M485.939 236.324C485.939 236.324 478.095 197.263 481.098 192.403C481.098 192.403 481.207 187.885 481.027 182.126C481.027 181.908 481.027 181.689 481.027 181.465C481.555 181.818 482.106 182.136 482.675 182.417C485.442 183.839 488.618 184.25 491.655 183.577L489.279 180.928C488.709 180.296 488.115 179.611 487.992 178.774C487.868 177.937 488.21 177.19 488.505 176.444C490.761 170.737 490.88 163.561 486.533 159.205C482.861 155.543 481.967 150.817 477.981 147.473C475.069 145.024 473.468 141.434 471.957 137.963C470.679 135.028 469.392 132.07 468.66 128.96C468.09 126.53 467.862 124.015 467.078 121.642C466.294 119.269 464.826 116.962 462.531 115.902C461.714 115.526 460.807 115.312 460.061 114.813C459.082 114.152 458.493 113.077 457.785 112.136C454.188 107.38 442.145 110.181 436.444 112.112C434.894 112.598 433.458 113.394 432.225 114.452L432.277 114.366C432.32 114.295 432.372 114.223 432.42 114.152C431.796 114.657 431.257 115.259 430.823 115.935C429.992 117.252 429.645 118.789 428.951 120.215C428.115 121.903 423.464 126.616 425.464 128.513C425.604 128.641 425.765 128.744 425.939 128.818C426.69 129.131 427.517 129.213 428.315 129.056L428.229 129.26C427.546 130.934 427.196 132.725 427.198 134.534C427.198 142.347 433.636 148.681 441.584 148.681C443.078 148.683 444.564 148.453 445.988 148.001C446.022 148.182 446.05 148.363 446.083 148.543C446.083 148.615 446.107 148.686 446.117 148.757L445.865 149.109C445.852 149.088 445.838 149.067 445.822 149.047L438.363 159.481C437.223 160.285 430.657 165.04 430.286 168.607C429.897 172.511 429.507 177.081 429.507 177.081L429.455 178.061C429.129 178.333 428.748 178.532 428.338 178.643C427.928 178.753 427.498 178.774 427.08 178.702C424.752 178.322 424.752 187.262 424.752 187.262C424.752 187.262 423.203 188.689 422.139 187.453C421.074 186.216 418.262 190.406 418.262 190.406L400.636 191.167L400.232 191.19L399.282 188.247C399.179 187.936 398.959 187.679 398.668 187.53C398.377 187.381 398.039 187.353 397.728 187.453C397.654 187.477 397.583 187.507 397.514 187.543L397.448 187.581L397.324 187.667L397.262 187.724C397.228 187.755 397.197 187.788 397.167 187.823L397.11 187.89L397.082 187.919C396.972 188.07 396.9 188.246 396.87 188.431C396.84 188.616 396.854 188.805 396.911 188.984L397.728 191.509C394.326 192.194 390.849 194.124 393.685 199.441L379.309 196.783L383.96 200.692L407.971 205.652C407.653 206.222 407.862 207.05 408.855 208.215C413.131 213.241 420.922 214.606 424.058 214.958C424.886 216.812 425.92 218.567 427.141 220.189L426.87 225.197C426.87 225.197 418.932 263.364 417.478 265.299C418.212 264.467 418.883 263.582 419.487 262.651C417.183 270.492 413.962 281.225 413.116 282.833C411.758 285.401 410.499 295.791 412.047 296.457C412.523 296.662 413.881 296.562 415.82 296.414V297.275L415.734 329.893C415.734 329.893 416.124 349.899 415.055 351.806C413.986 353.713 413.701 357.712 413.701 357.712C413.701 357.712 409.425 365.601 406.037 368.773C406.014 368.798 405.989 368.82 405.961 368.84L405.857 368.098C405.857 368.098 401.785 373.243 392.778 372.953C392.778 372.953 387.357 376.482 395.395 376.672C403.434 376.862 413.701 376.387 413.701 376.387C413.701 376.387 420.87 365.449 426.875 366.876V375.165H428.714V366.743C429.567 366.181 430.296 365.452 430.859 364.599C431.422 363.746 431.805 362.788 431.987 361.783C432.145 360.746 432.029 359.687 431.653 358.709C431.276 357.73 430.651 356.867 429.84 356.205C429.475 355.875 429.183 355.473 428.981 355.024C428.779 354.576 428.672 354.091 428.666 353.599L428.6 353.656C428.6 353.489 428.557 353.318 428.538 353.142C428.011 348.862 427.35 340.031 429.683 333.497C432.88 324.538 433.85 312.06 431.522 304.632C430.771 302.257 430.153 299.843 429.674 297.399C429.617 297.09 429.564 296.795 429.517 296.519C431.108 296.734 432.684 297.052 434.234 297.47C439.627 298.958 451.423 299.234 461.495 299.153C461.519 299.429 461.548 299.719 461.581 300.009C461.761 302.026 462.136 304.02 462.702 305.963C463.966 309.768 464.546 326.54 464.546 326.54C464.546 326.54 466.175 340.331 465.287 345.942C464.812 349.062 464.337 352.196 464.066 355.344V355.406C464.066 355.406 461.396 363.014 459.443 367.147C459.396 367.252 459.343 367.356 459.296 367.456C458.775 367.504 458.263 367.617 457.771 367.794C457.771 367.794 455.153 373.025 452.545 373.89C449.936 374.756 450.801 377.604 456.706 376.558C462.612 375.512 471.529 374.656 471.529 374.656L471.914 369.32L473.729 367.047L473.254 372.368L475.188 371.988L474.931 365.516L477.901 361.797C477.901 361.797 481.487 358.601 476.157 352.315V352.453C476.1 352.362 476.048 352.267 475.986 352.177V352.148C475.102 350.779 474.399 348.225 475.687 343.693C478.015 335.504 479.369 328.071 479.369 328.071C479.369 328.071 484.566 308.16 478.319 298.74H478.594C477.954 297.414 477.501 296.006 477.25 294.555C477.218 294.384 477.189 294.208 477.164 294.027C481.787 293.761 486.324 292.924 490.025 291.117C490.011 291.098 487.783 243.847 485.939 236.324ZM427.251 203.369V203.464L426.3 203.512L427.251 203.369ZM423.991 203.821C423.835 203.855 423.689 203.925 423.564 204.025C423.155 204.604 422.899 205.276 422.818 205.98L421.336 205.647C421.336 205.647 420.295 205.423 418.799 205.171L418.091 204.458C420.039 204.296 422.062 204.059 423.991 203.821Z" fill="url(#paint0_linear_1734_27690)"/>
<path d="M473.036 365.583L472.47 372.321L474.366 371.941L474.081 364.631L473.036 365.583Z" fill="#1D2366"/>
<path d="M429.787 333.588C427.502 340.103 428.148 348.896 428.661 353.166C428.851 354.745 429.027 355.705 429.027 355.705C429.027 355.705 425.611 363.495 425.326 363.79C425.041 364.084 415.273 370.053 415.273 370.053L408.446 374.042C408.446 374.042 401.519 371.004 404.84 369.957C405.519 369.685 406.13 369.268 406.631 368.735C409.957 365.573 414.133 357.712 414.133 357.712C414.133 357.712 414.418 353.722 415.463 351.825C416.508 349.927 416.128 329.988 416.128 329.988L416.209 297.484V293.247L429.203 293.342C429.285 294.781 429.472 296.211 429.764 297.622C430.23 300.058 430.834 302.465 431.574 304.831C433.864 312.245 432.913 324.662 429.787 333.588Z" fill="#FFB0B1"/>
<path opacity="0.1" d="M429.027 355.705C429.027 355.705 425.611 363.495 425.326 363.79C425.041 364.085 415.273 370.053 415.273 370.053L408.446 374.042C408.446 374.042 401.519 371.004 404.84 369.958C405.519 369.685 406.13 369.268 406.631 368.735L406.926 370.814L409.201 370.718L428.68 353.176C428.851 354.745 429.027 355.705 429.027 355.705Z" fill="black"/>
<path d="M428.79 353.618L409.202 371.28L406.926 371.375L406.451 368.046C406.451 368.046 402.47 373.172 393.623 372.887C393.623 372.887 388.312 376.401 396.184 376.591C404.056 376.782 414.109 376.306 414.109 376.306C414.109 376.306 421.131 365.369 427.008 366.795V375.055H428.814V366.719C429.653 366.153 430.369 365.424 430.92 364.574C431.47 363.724 431.843 362.771 432.016 361.773C432.172 360.745 432.062 359.695 431.695 358.722C431.328 357.749 430.717 356.887 429.921 356.219C429.565 355.885 429.281 355.483 429.087 355.035C428.893 354.588 428.791 354.106 428.79 353.618Z" fill="#1D2366"/>
<path d="M474.841 343.745C473.577 348.263 474.266 350.807 475.131 352.172V352.201C476.24 353.886 477.011 355.771 477.402 357.75L477.478 358.178L468.565 371.184L463.728 373.087C463.728 373.087 455.951 370.428 457.372 369.667C457.728 369.482 458.284 368.493 458.92 367.128C460.821 363.015 463.443 355.425 463.443 355.425V355.363C463.719 352.229 464.156 349.105 464.641 345.995C465.51 340.398 463.914 326.659 463.914 326.659C463.914 326.659 463.344 309.953 462.108 306.154C461.551 304.222 461.18 302.241 461.001 300.238C460.745 297.86 460.688 295.901 460.688 295.901C460.688 295.901 465.809 288.768 475.197 296.471C475.948 297.086 476.608 297.803 477.159 298.602C483.644 307.837 478.423 328.181 478.423 328.181C478.423 328.181 477.117 335.58 474.841 343.745Z" fill="#FFB0B1"/>
<path opacity="0.1" d="M477.492 358.178L468.579 371.184L463.743 373.087C463.743 373.087 455.965 370.428 457.386 369.667C457.742 369.482 458.298 368.493 458.935 367.128C462.227 367.099 463.933 370.238 463.933 370.238L468.104 369.572C468.104 369.572 473.606 358.749 474.841 358.088C476.076 357.427 475.031 353.147 475.031 353.147V352.058C475.064 352.096 475.093 352.139 475.131 352.177V352.205C476.24 353.891 477.011 355.775 477.402 357.755L477.492 358.178Z" fill="black"/>
<path d="M464.218 370.519C464.218 370.519 461.842 366.153 457.291 367.765C457.291 367.765 454.73 372.996 452.169 373.843C449.609 374.689 450.464 377.542 456.25 376.501C462.037 375.46 470.76 374.599 470.76 374.599L471.14 369.277L477.022 361.778C477.022 361.778 480.528 358.597 475.311 352.334V353.423C475.311 353.423 476.356 357.703 475.121 358.364C473.886 359.025 468.403 369.853 468.403 369.853L464.218 370.519Z" fill="#1D2366"/>
<path opacity="0.1" d="M429.218 293.333C429.3 294.771 429.487 296.202 429.778 297.613C424.429 296.828 419.464 297.218 416.209 297.475V293.238L429.218 293.333Z" fill="black"/>
<path opacity="0.1" d="M477.687 299.786C477.687 299.786 470.085 300.157 461.021 300.233C460.764 297.855 460.707 295.896 460.707 295.896C460.707 295.896 465.829 288.763 475.216 296.467C475.967 297.081 476.628 297.798 477.179 298.597C477.326 299.003 477.496 299.399 477.687 299.786Z" fill="black"/>
<path d="M477.687 298.93C477.687 298.93 444.392 300.542 434.244 297.694C424.096 294.845 414.038 297.313 412.523 296.652C411.007 295.991 412.238 285.638 413.568 283.075C414.898 280.512 422.196 254.59 422.196 254.59L429.217 217.945L436.615 215.904L437.137 215.757L450.027 212.2L459.472 209.589C459.472 209.589 478.252 282.98 476.642 288.392C476.057 290.464 475.962 292.644 476.366 294.759C476.612 296.204 477.057 297.607 477.687 298.93Z" fill="#1D2366"/>
<path d="M404.741 192.883C404.741 192.883 398.089 200.016 403.125 203.992C408.161 207.968 411.473 204.372 411.473 204.372L404.741 192.883Z" fill="#C7DAF5"/>
<path opacity="0.1" d="M404.741 192.883C404.741 192.883 398.089 200.016 403.125 203.992C408.161 207.968 411.473 204.372 411.473 204.372L404.741 192.883Z" fill="black"/>
<path d="M458.479 145.985C458.479 145.985 457.699 146.727 456.526 147.821C454.854 149.385 452.378 151.672 450.183 153.589C447.143 156.238 444.634 158.183 445.532 156.523C446.43 154.863 446.259 151.972 445.813 149.266C445.779 149.086 445.751 148.905 445.718 148.729C445.348 146.742 444.857 144.779 444.25 142.851C444.25 142.851 449.162 136.498 451.88 133.992C452.892 133.041 453.599 132.651 453.642 133.312C453.69 134.201 454.355 136.165 455.181 138.248C455.205 138.314 455.229 138.376 455.258 138.443C455.809 139.869 456.431 141.334 456.977 142.599C457.814 144.539 458.479 145.985 458.479 145.985Z" fill="#FFB0B1"/>
<path opacity="0.1" d="M455.258 138.443C454.796 140.928 453.676 143.244 452.014 145.148C450.353 147.052 448.211 148.474 445.813 149.266C445.435 147.095 444.913 144.952 444.25 142.851C444.25 142.851 453.5 130.891 453.642 133.312C453.675 134.23 454.398 136.265 455.258 138.443Z" fill="black"/>
<path opacity="0.1" d="M444.891 152.462L446.088 150.774C446.088 150.774 446.882 155.615 449.799 153.48C452.716 151.344 452.858 169.548 452.858 169.548L449.728 216.404L427.104 215.048L427.745 192.408L430.306 180.995L436.639 164.403L440.406 158.92L444.891 152.462Z" fill="black"/>
<path d="M452.858 169.838L450.008 212.205L449.709 216.694L437.095 215.938L436.62 215.909L427.118 215.339L427.759 192.693L430.32 181.28L436.653 164.688L440.42 159.205L444.905 152.723L446.103 151.04C446.103 151.04 446.896 155.881 449.813 153.746L449.875 153.703C452.725 151.896 452.858 169.838 452.858 169.838Z" fill="#1D2366"/>
<path d="M430.638 177.314C430.638 177.314 429.503 179.692 427.222 179.307C424.942 178.921 424.946 187.866 424.946 187.866C424.946 187.866 423.431 189.293 422.386 188.057C421.34 186.82 418.585 191 418.585 191L401.32 191.761C401.32 191.761 409.002 195.275 407.496 205.909C407.496 205.909 433.579 204.292 434.434 201.824C435.289 199.355 430.638 177.314 430.638 177.314Z" fill="white"/>
<path opacity="0.03" d="M430.638 177.314C430.638 177.314 429.503 179.692 427.222 179.307C424.942 178.921 424.946 187.866 424.946 187.866C424.946 187.866 423.431 189.293 422.386 188.057C421.34 186.82 418.585 191 418.585 191L401.32 191.761C401.32 191.761 409.002 195.275 407.496 205.909C407.496 205.909 433.579 204.292 434.434 201.824C435.289 199.355 430.638 177.314 430.638 177.314Z" fill="black"/>
<path d="M380.463 197.349L385.014 201.239L422.48 209.118L417.834 204.372L380.463 197.349Z" fill="white"/>
<path d="M444.962 153.96C444.34 154.911 442.558 159.781 441.071 164.032C439.831 167.575 438.795 170.69 438.795 170.69C438.795 170.69 436.377 186.449 435.142 189.298C433.907 192.146 434.576 203.255 434.576 203.255L429.973 230.689C429.973 230.689 427.887 244.837 424.666 253.287C421.488 261.604 417.948 265.504 417.839 265.628C419.264 263.697 427.032 225.682 427.032 225.682L429.597 177.737C429.597 177.737 429.973 173.181 430.353 169.287C430.733 165.392 438.43 160.075 438.43 160.075L445.851 149.514C446.596 150.512 446.098 152.253 444.962 153.96Z" fill="white"/>
<path d="M425.612 215.576C425.612 215.576 414.684 215.101 409.392 208.738C404.099 202.375 421.626 206.199 421.626 206.199L426.182 207.245L425.612 215.576Z" fill="#FFB0B1"/>
<path opacity="0.1" d="M476.642 288.397C476.057 290.469 475.962 292.649 476.366 294.764C464.446 295.611 451.694 292.387 451.694 292.387C449.319 294.574 443.062 297.798 443.062 297.798L439.651 255.475C437.47 249.768 436.615 219.871 436.615 219.871C436.615 219.871 436.81 218.306 437.09 215.962C437.09 215.904 437.09 215.843 437.114 215.786C437.964 209.237 439.651 196.944 440.477 195.285C441.617 193.002 436.971 186.929 436.971 186.929L439.085 168.883L439.342 166.705C443.798 164.712 447.214 158.349 447.214 158.349L449.837 153.751C452.687 151.92 452.834 169.862 452.834 169.862L449.984 212.229L459.429 209.618C459.429 209.618 478.252 282.985 476.642 288.397Z" fill="black"/>
<path d="M488.875 291.321C475.881 297.779 452.264 291.797 452.264 291.797C449.889 293.984 443.632 297.209 443.632 297.209L440.216 254.885C438.04 249.178 437.185 219.281 437.185 219.281C437.185 219.281 439.931 196.973 441.071 194.695C441.403 194.029 441.242 193.04 440.848 191.975C438.909 186.905 438.196 181.448 438.767 176.049L439.679 168.293L439.931 166.12C444.392 164.122 447.808 157.76 447.808 157.76L450.183 153.594L454.554 145.918L456.626 142.285L456.977 142.604L459.661 145.039C459.661 145.039 460.802 145.99 462.512 147.416C466.232 150.555 472.66 156.081 475.976 159.462C478.893 162.439 479.815 174.018 480.081 182.735C480.257 188.475 480.152 192.974 480.152 192.974C477.211 197.819 484.903 236.724 484.903 236.724C486.694 244.242 488.875 291.321 488.875 291.321Z" fill="white"/>
<path opacity="0.03" d="M463.933 157.664C463.933 157.664 455.015 174.656 456.051 181.114C457.086 187.571 460.032 194.881 458.611 196.588C458.123 197.235 457.492 197.76 456.768 198.122C456.043 198.484 455.245 198.673 454.435 198.675C453.01 198.771 449.209 201.429 449.209 201.714C449.209 202 445.698 202 442.558 203.331C439.418 204.663 434.781 205.419 434.781 205.419C434.781 205.419 425.754 205.133 424.913 205.989C424.072 206.845 423.207 211.967 425.008 216.052C426.808 220.137 428.809 223.185 430.319 223.741C431.83 224.298 441.418 221.083 449.195 220.322C456.972 219.561 465.415 213.394 465.415 213.394C465.415 213.394 474.712 210.065 476.342 204.468C477.972 198.87 474.351 168.107 474.351 168.107C474.351 168.107 471.615 153.77 463.933 157.664Z" fill="black"/>
<path opacity="0.03" d="M462.792 156.238C462.792 156.238 453.875 173.234 454.92 179.687C455.965 186.14 458.901 193.454 457.476 195.166C456.99 195.813 456.36 196.339 455.636 196.701C454.912 197.064 454.114 197.253 453.305 197.254C451.879 197.349 448.079 200.007 448.079 200.292C448.079 200.578 444.568 200.578 441.427 201.904C438.287 203.231 433.65 203.992 433.65 203.992C433.65 203.992 424.623 203.707 423.787 204.563C422.951 205.419 422.077 210.545 423.882 214.625C425.687 218.705 427.683 221.758 429.193 222.315C430.704 222.871 440.292 219.657 448.069 218.9C455.846 218.144 464.289 211.967 464.289 211.967C464.289 211.967 473.582 208.638 475.192 203.046C476.803 197.453 473.202 166.681 473.202 166.681C473.202 166.681 470.475 152.348 462.792 156.238Z" fill="black"/>
<path d="M463.652 156.808C463.652 156.808 454.735 173.804 455.78 180.258C456.825 186.711 459.761 194.025 458.341 195.732C457.855 196.381 457.224 196.908 456.499 197.271C455.775 197.634 454.975 197.824 454.165 197.824C452.74 197.919 448.939 200.578 448.939 200.858C448.939 201.139 445.433 201.144 442.287 202.475C439.142 203.807 434.51 204.563 434.51 204.563C434.51 204.563 425.483 204.277 424.642 205.133C423.801 205.989 422.937 211.116 424.737 215.196C426.538 219.276 428.538 222.329 430.049 222.885C431.56 223.442 441.147 220.227 448.924 219.466C456.702 218.705 465.144 212.538 465.144 212.538C465.144 212.538 474.442 209.209 476.071 203.612C477.701 198.014 474.105 167.251 474.105 167.251C474.105 167.251 471.33 152.937 463.652 156.808Z" fill="white"/>
<path opacity="0.1" d="M463.458 202.394C463.458 202.394 456.331 200.968 458.811 203.345C461.291 205.723 461.277 207.806 464.313 207.711C467.349 207.616 463.458 202.394 463.458 202.394Z" fill="black"/>
<path opacity="0.1" d="M475.501 253.553C475.501 253.553 472.28 255.736 478.442 260.767C484.604 265.799 475.501 253.553 475.501 253.553Z" fill="black"/>
<path opacity="0.1" d="M469.354 271.496C469.354 271.781 468.213 281.958 472.48 284.502C476.746 287.046 469.354 271.496 469.354 271.496Z" fill="black"/>
<path d="M401.614 191.737C398.175 191.856 390.744 192.907 394.597 200.102C398.004 206.47 403.729 202.214 406.95 198.985C406.164 195.974 404.254 193.38 401.614 191.737Z" fill="#FFB0B1"/>
<path d="M406.993 198.928L407.136 198.78L406.993 198.928Z" fill="#FFB0B1"/>
<path opacity="0.1" d="M462.512 147.706C458.864 150.203 455.804 152.31 455.205 152.747C453.571 153.96 450.454 161.079 448.445 164.712C446.844 167.637 441.641 168.388 439.679 168.573L439.931 166.4C444.392 164.403 447.808 158.04 447.808 158.04L456.626 142.566L459.662 145.329C459.662 145.329 460.802 146.28 462.512 147.706Z" fill="black"/>
<path d="M462.512 147.421C458.864 149.918 455.804 152.024 455.205 152.467C453.571 153.675 450.454 160.794 448.445 164.427C446.844 167.351 441.641 168.103 439.679 168.288L439.931 166.115C444.392 164.118 447.808 157.755 447.808 157.755L456.626 142.281L459.662 145.034C459.662 145.034 460.802 145.976 462.512 147.421Z" fill="#DCE7FF"/>
<path d="M455.49 135.304C455.492 138.159 454.627 140.947 453.01 143.298C451.1 146.078 448.258 148.081 444.999 148.943C441.74 149.805 438.281 149.469 435.248 147.997C432.215 146.524 429.81 144.012 428.47 140.916C427.129 137.82 426.942 134.346 427.942 131.124C428.941 127.902 431.062 125.145 433.918 123.354C436.775 121.562 440.178 120.856 443.511 121.361C446.844 121.867 449.885 123.552 452.083 126.11C454.281 128.668 455.49 131.93 455.49 135.304Z" fill="#FFB0B1"/>
<path opacity="0.1" d="M480.081 182.74C478.152 181.552 476.581 179.862 475.535 177.851C474.741 176.282 474.214 174.47 472.86 173.357C471.639 172.359 470.009 172.116 468.489 171.669C463.491 170.19 459.301 165.625 459.144 160.413C459.068 157.959 459.833 155.51 459.486 153.08C459.289 151.705 458.742 150.403 457.899 149.3C457.48 148.772 457.021 148.277 456.526 147.821C455.861 147.193 455.162 146.584 454.554 145.918C454.171 145.506 453.837 145.051 453.557 144.563C453.331 144.163 453.148 143.741 453.01 143.303C452.06 140.393 452.925 136.94 451.88 133.996L451.823 133.835C451.428 132.789 450.625 131.742 449.509 131.662C448.392 131.581 447.437 132.508 446.373 132.922C444.145 133.787 441.741 132.313 439.883 130.81C438.026 129.308 435.931 127.591 433.569 127.924C432.006 128.147 430.771 129.212 429.332 129.764C429.007 129.89 428.671 129.987 428.329 130.054C429.547 127.013 431.786 124.492 434.659 122.923C437.533 121.354 440.863 120.836 444.077 121.458C447.291 122.08 450.188 123.803 452.271 126.33C454.354 128.858 455.492 132.033 455.49 135.309C455.492 136.298 455.388 137.285 455.182 138.253C455.205 138.319 455.229 138.381 455.258 138.448C455.809 139.874 456.431 141.339 456.977 142.604L459.662 145.039C459.662 145.039 460.802 145.99 462.512 147.416C466.232 150.555 472.66 156.081 475.976 159.462C478.894 162.448 479.806 174.023 480.081 182.74Z" fill="black"/>
<path d="M429.165 121.076C429.844 119.692 430.182 118.142 430.994 116.829C432.187 114.927 434.268 113.71 436.406 112.973C441.988 111.047 453.785 108.25 457.31 112.973C458.003 113.924 458.578 114.979 459.538 115.636C460.27 116.135 461.153 116.349 461.956 116.725C464.203 117.78 465.638 120.082 466.403 122.431C467.168 124.78 467.396 127.301 467.957 129.721C468.674 132.827 469.933 135.77 471.187 138.695C472.665 142.147 474.233 145.728 477.083 148.168C480.974 151.497 481.834 156.209 485.445 159.861C489.721 164.198 489.583 171.355 487.379 177.038C487.089 177.785 486.761 178.565 486.875 179.359C486.989 180.153 487.578 180.876 488.134 181.508L490.471 184.148C484.941 185.484 478.684 182.592 476.109 177.518C475.316 175.949 474.789 174.142 473.43 173.025C472.214 172.026 470.579 171.788 469.064 171.341C464.066 169.857 459.875 165.287 459.719 160.075C459.642 157.626 460.407 155.177 460.061 152.752C459.868 151.367 459.319 150.057 458.469 148.948C457.163 147.24 455.191 146.094 454.127 144.192C452.326 141.011 453.694 136.878 452.397 133.464C451.998 132.418 451.2 131.371 450.084 131.291C448.967 131.21 448.012 132.137 446.943 132.551C444.72 133.416 442.316 131.947 440.458 130.439C438.601 128.932 436.505 127.22 434.139 127.558C432.576 127.776 431.346 128.842 429.906 129.398C428.842 129.807 426.685 130.173 425.754 129.274C423.787 127.462 428.343 122.769 429.165 121.076Z" fill="#591D4B"/>
<path opacity="0.1" d="M477.43 175.949C476.632 174.38 476.109 172.573 474.75 171.46C473.534 170.461 471.9 170.219 470.38 169.772C465.386 168.293 461.196 163.723 461.034 158.511C460.958 156.062 461.723 153.608 461.381 151.183C461.182 149.807 460.634 148.505 459.79 147.402C458.478 145.695 456.507 144.549 455.447 142.647C453.647 139.47 455.015 135.337 453.713 131.918C453.319 130.877 452.516 129.831 451.404 129.745C450.292 129.659 449.328 130.596 448.264 131.01C446.04 131.876 443.632 130.401 441.779 128.899C439.926 127.396 437.821 125.679 435.46 126.012C433.897 126.236 432.662 127.301 431.227 127.852C430.163 128.261 428.001 128.632 427.07 127.734C425.112 125.831 429.669 121.147 430.486 119.464C431.165 118.075 431.502 116.53 432.32 115.217C432.362 115.146 432.41 115.075 432.457 115.003C431.846 115.51 431.319 116.11 430.894 116.782C430.082 118.094 429.745 119.635 429.065 121.028C428.243 122.712 423.687 127.41 425.649 129.298C426.599 130.202 428.737 129.831 429.802 129.422C431.227 128.865 432.472 127.8 434.035 127.581C436.41 127.244 438.501 128.96 440.354 130.463C442.206 131.966 444.629 133.44 446.843 132.575C447.908 132.161 448.839 131.229 449.979 131.314C451.119 131.4 451.879 132.441 452.293 133.488C453.59 136.902 452.221 141.035 454.022 144.216C455.086 146.085 457.058 147.255 458.364 148.971C459.215 150.08 459.763 151.391 459.956 152.776C460.303 155.201 459.538 157.65 459.614 160.099C459.771 165.33 463.961 169.881 468.959 171.365C470.465 171.812 472.109 172.05 473.325 173.048C474.689 174.166 475.226 175.973 476.005 177.542C478.58 182.616 484.837 185.508 490.367 184.171L489.265 182.925C484.471 182.997 479.62 180.267 477.43 175.949Z" fill="black"/>
<path opacity="0.1" d="M444.677 154.245C444.055 155.196 442.273 160.066 440.786 164.317C439.394 163.775 438.13 160.318 438.13 160.318L445.551 149.751C446.312 150.798 445.813 152.533 444.677 154.245Z" fill="black"/>
<path d="M444.962 153.96C444.34 154.911 442.558 159.781 441.071 164.032C439.679 163.495 438.416 160.033 438.416 160.033L445.837 149.471C446.597 150.512 446.098 152.253 444.962 153.96Z" fill="#DCE7FF"/>
<path d="M401.814 202.542L397.699 189.554C397.651 189.402 397.633 189.242 397.646 189.083C397.659 188.924 397.704 188.769 397.777 188.627C397.85 188.485 397.951 188.359 398.073 188.257C398.195 188.154 398.336 188.076 398.488 188.028C398.794 187.932 399.126 187.962 399.411 188.109C399.695 188.257 399.91 188.512 400.008 188.817L404.123 201.79L403.714 204.506L401.814 202.542Z" fill="#BE8B87"/>
<path opacity="0.1" d="M398.089 188.413C398.396 188.316 398.729 188.345 399.015 188.493C399.301 188.641 399.516 188.896 399.614 189.203L403.729 202.175L403.42 204.211L403.719 204.525L404.128 201.809L399.99 188.836C399.891 188.531 399.677 188.276 399.392 188.128C399.107 187.981 398.775 187.951 398.469 188.047C398.212 188.131 397.989 188.298 397.837 188.523C397.918 188.479 398.002 188.443 398.089 188.413Z" fill="white"/>
<path d="M401.814 202.542L404.123 201.809L403.786 204.035L403.714 204.525L403.04 203.821L401.814 202.542Z" fill="#EFC8C4"/>
<path d="M403.04 203.821C403.08 203.77 403.13 203.728 403.187 203.697C403.22 203.676 403.259 203.665 403.298 203.665C403.338 203.665 403.377 203.676 403.41 203.697C403.442 203.736 403.47 203.78 403.491 203.826C403.522 203.878 403.565 203.923 403.616 203.957C403.667 203.99 403.725 204.012 403.785 204.021L403.714 204.496L403.04 203.821Z" fill="#727A9C"/>
<path d="M397.676 194.167C397.676 194.167 405.928 194.12 403.985 197.634C402.042 201.148 399.006 201.572 399.006 201.572L397.676 194.167Z" fill="#FFB0B1"/>
</g>
<path d="M88.7962 117.488C86.4289 118.39 84.0116 119.155 81.5563 119.779C78.313 120.57 76.4818 120.937 73.3515 119.721C73.2415 119.678 73.1366 119.636 73.0376 119.595C67.1041 117.07 62.032 112.874 58.4387 107.517C54.8454 102.16 52.8858 95.8735 52.7985 89.4223C52.7829 89.201 52.7829 88.9684 52.7829 88.7414C52.7798 87.648 52.8321 86.5552 52.9394 85.4671C53.0765 83.985 53.3135 82.5138 53.6486 81.0635L53.6173 81.0579C51.0828 78.4645 50.1077 74.9122 50.431 71.3428C50.6525 68.9229 51.42 66.5849 52.6756 64.505C53.9312 62.425 55.6422 60.6573 57.6797 59.3352C60.8728 57.3263 64.4732 56.0546 68.219 55.6126C69.2248 55.4965 70.2364 55.4378 71.2489 55.4367H80.7608C82.7254 54.9764 84.7211 54.6616 86.7319 54.4947H86.7475C105.891 52.9058 120.989 65.6057 119.581 81.0578C119.57 81.0749 119.555 81.0919 119.544 81.1089C119.137 81.7729 118.777 82.4028 118.459 83.0043C118.152 83.5661 117.891 84.1051 117.667 84.6159C115.92 88.5655 124.222 149.843 121.244 150.774C119.549 151.301 112.718 105.703 113.943 114.374C115.487 125.252 97.6156 114.226 88.7962 117.488Z" fill="#2F2E41"/>
<path d="M117.635 228.26L144.172 284.833L42.0898 274.487L63.3991 220.178L117.635 228.26Z" fill="#FFB6B6"/>
<path d="M170.907 341.686C153.155 347.599 134.448 350.106 115.767 349.077L107.644 335.894C107.644 335.894 107.303 340.803 106.796 348.309C97.9035 347.278 89.1269 345.416 80.5811 342.748C64.3748 337.677 49.1832 329.819 33.784 322.573C30.6649 303.967 29.4945 275.277 46.7386 258.575L139.555 275.594C139.555 275.594 154.447 286.74 150.463 290.733C146.479 294.719 145.862 294.102 148.479 296.721C151.097 299.34 156.753 302.842 156.81 305.133C156.833 306.027 163.181 322.244 170.907 341.686Z" fill="#2F2E41"/>
<path d="M101.427 118.941L79.0032 120.507L64.5097 134.522L59.4338 135.428C54.8711 136.242 50.7656 138.703 47.8958 142.345C45.0259 145.987 43.5913 150.555 43.8638 155.185C44.9079 172.886 47.2457 199.335 52.1318 207.916C59.7081 221.222 65.966 217.047 59.7081 221.222C53.4502 225.397 49.2488 222.116 52.1318 228.714C55.0147 235.312 48.2353 243.774 48.2353 243.774L45.5366 246.475L48.3989 247.649L139.604 259.524C139.604 259.524 131.718 224.043 136.65 215.327C141.582 206.61 153.54 180.263 142.868 169.954L132.433 133.208L114.483 127.91L101.427 118.941Z" fill="#F50057"/>
<path d="M237.171 264.569C235.67 264.521 234.198 264.148 232.855 263.475C231.513 262.802 230.333 261.845 229.396 260.67C228.46 259.496 227.789 258.132 227.432 256.673C227.074 255.214 227.037 253.694 227.323 252.219L184.541 223.226L189.646 209.413L240.208 244.22C242.652 244.888 244.768 246.43 246.153 248.554C247.537 250.678 248.095 253.236 247.721 255.744C247.347 258.252 246.066 260.536 244.122 262.162C242.177 263.789 239.704 264.645 237.171 264.569V264.569Z" fill="#FFB6B6"/>
<path d="M116.331 131.472L110.114 133.936L143.277 198.749L211.93 245.576L221.827 228.839L169.567 183.67L148.645 143.517C145.7 137.866 140.768 133.508 134.8 131.283C128.832 129.059 122.252 129.126 116.331 131.472Z" fill="#F50057"/>
<path d="M89.0482 113.241C101.484 113.241 111.565 103.153 111.565 90.7093C111.565 78.2652 101.484 68.1773 89.0482 68.1773C76.6124 68.1773 66.5312 78.2652 66.5312 90.7093C66.5312 103.153 76.6124 113.241 89.0482 113.241Z" fill="#FFB6B6"/>
<path d="M108.629 81.1811C108.254 81.3794 107.884 81.5621 107.508 81.7447C107.117 81.9326 106.726 82.1204 106.329 82.2978C98.7939 85.7159 92.656 86.0969 88.9325 81.1811C88.8307 78.595 88.2489 76.0503 87.2169 73.6771C87.3992 76.3292 86.7007 78.9673 85.23 81.1811H77.7309C70.0077 86.3108 66.0444 91.023 71.4053 107.863C71.7546 108.969 74.1483 148.274 74.8315 151.295C63.1397 146.808 53.054 99.1585 52.7985 86.603C52.7828 86.3995 52.7828 86.1856 52.7828 85.9768C52.7798 84.971 52.8321 83.9658 52.9393 82.9658C53.0769 81.6005 53.314 80.2471 53.6485 78.9163L53.6172 78.9111C52.4277 77.7731 51.5201 76.3727 50.967 74.8217C50.4138 73.2707 50.2302 71.6118 50.4309 69.9772C52.3923 67.4074 54.8195 65.23 57.5858 63.5586C60.1012 62.3397 62.7231 61.3545 65.4185 60.6154C65.4863 60.5998 65.5437 60.5841 65.6115 60.5685C66.4355 60.3441 67.2803 60.1406 68.1251 59.9631C69.8661 59.5978 71.6263 59.3312 73.3974 59.1647C73.5277 59.1595 73.6529 59.149 73.7676 59.149C74.476 59.1495 75.1713 59.3406 75.7806 59.7022C75.7858 59.7022 75.7858 59.7074 75.7962 59.7074C76.3816 60.0575 76.8672 60.5524 77.206 61.1447C77.5449 61.7369 77.7256 62.4065 77.7309 63.0889H86.0852C86.3929 63.0889 86.7006 63.0994 87.0083 63.115C98.6427 63.5794 107.993 68.5578 108.593 80.0018C108.619 80.3984 108.629 80.7845 108.629 81.1811Z" fill="#2F2E41"/>
<path d="M59.2371 82.087C67.4299 82.087 74.0714 75.441 74.0714 67.2427C74.0714 59.0445 67.4299 52.3985 59.2371 52.3985C51.0444 52.3985 44.4028 59.0445 44.4028 67.2427C44.4028 75.441 51.0444 82.087 59.2371 82.087Z" fill="#2F2E41"/>
<path d="M79.6029 60.3768C77.9176 68.3998 69.6029 73.1981 61.6484 71.2353C57.8285 70.2927 54.5393 67.8703 52.5043 64.5009C50.4693 61.1315 49.8553 57.0912 50.7972 53.2688C52.7587 45.309 62.4125 47.6037 68.7517 42.4103C77.7194 35.0635 81.8757 49.5573 79.6029 60.3768Z" fill="#2F2E41"/>
<path d="M46.6434 283.704C59.2864 232.111 84.3373 187.767 125.825 153.023C127.431 150.38 130.018 148.482 133.021 147.746C136.023 147.01 139.194 147.495 141.839 149.096L240.466 208.935C243.107 210.542 245.004 213.132 245.74 216.136C246.476 219.14 245.99 222.314 244.391 224.961C228.555 277.9 204.838 323.838 165.209 355.641C163.604 358.284 161.016 360.182 158.014 360.918C155.012 361.655 151.84 361.169 149.195 359.568L50.5684 299.729C47.927 298.122 46.0304 295.533 45.2945 292.528C44.5587 289.524 45.0438 286.35 46.6434 283.704Z" fill="#F2F2F2"/>
<path opacity="0.2" d="M64.1733 301.091C61.5319 299.484 59.6353 296.895 58.8995 293.89C58.1637 290.886 58.6489 287.713 60.2485 285.066C72.8915 233.473 97.9424 189.129 139.43 154.385C140.493 152.655 141.993 151.237 143.78 150.273L141.839 149.096C139.194 147.495 136.023 147.01 133.021 147.746C130.018 148.482 127.431 150.38 125.825 153.023C84.3373 187.766 59.2865 232.111 46.6435 283.704C45.0439 286.35 44.5587 289.524 45.2945 292.528C46.0303 295.532 47.9269 298.122 50.5683 299.729L149.195 359.568C150.95 360.625 152.954 361.199 155.002 361.231C157.05 361.264 159.071 360.754 160.859 359.753L64.1733 301.091Z" fill="black"/>
<path d="M179.837 272.266L113.635 232.35C112.583 231.714 111.826 230.686 111.531 229.492C111.236 228.299 111.427 227.036 112.061 225.983C112.695 224.93 113.721 224.172 114.914 223.875C116.106 223.578 117.368 223.767 118.421 224.4L184.624 264.317C185.673 264.954 186.427 265.981 186.721 267.174C187.014 268.366 186.823 269.627 186.19 270.679C185.557 271.731 184.532 272.488 183.341 272.786C182.151 273.084 180.89 272.897 179.837 272.266L179.837 272.266Z" fill="white"/>
<path d="M141.325 219.333L126.76 210.552C125.705 209.92 124.943 208.894 124.643 207.701C124.344 206.507 124.53 205.243 125.161 204.187C125.793 203.131 126.818 202.369 128.01 202.069C129.203 201.769 130.466 201.955 131.522 202.587L131.547 202.602L146.111 211.384C147.161 212.021 147.915 213.048 148.209 214.241C148.503 215.434 148.312 216.694 147.678 217.746C147.045 218.798 146.02 219.556 144.829 219.854C143.638 220.151 142.378 219.964 141.325 219.333Z" fill="white"/>
<path d="M169.315 289.741L103.112 249.824C102.059 249.19 101.301 248.163 101.004 246.969C100.708 245.776 100.897 244.513 101.53 243.459C102.163 242.404 103.188 241.645 104.381 241.347C105.573 241.049 106.835 241.236 107.89 241.869L107.899 241.875L174.102 281.791C175.151 282.428 175.905 283.456 176.198 284.648C176.492 285.841 176.301 287.101 175.668 288.153C175.034 289.205 174.01 289.963 172.819 290.26C171.628 290.558 170.368 290.371 169.315 289.741L169.315 289.741Z" fill="white"/>
<path d="M188.244 197.003C198.923 197.003 207.581 188.34 207.581 177.653C207.581 166.967 198.923 158.304 188.244 158.304C177.565 158.304 168.908 166.967 168.908 177.653C168.908 188.34 177.565 197.003 188.244 197.003Z" fill="#3F3D56"/>
<path d="M288.385 134.057C290.028 133.916 291.28 132.875 291.182 131.732C291.085 130.589 289.674 129.776 288.032 129.917C286.389 130.057 285.137 131.098 285.235 132.241C285.333 133.384 286.743 134.197 288.385 134.057Z" fill="white"/>
<path d="M306.864 127.784C308.506 127.643 309.758 126.603 309.66 125.46C309.563 124.316 308.152 123.503 306.51 123.644C304.867 123.784 303.615 124.825 303.713 125.968C303.811 127.112 305.221 127.924 306.864 127.784Z" fill="#3F3D56"/>
<path d="M279.626 119.949C281.269 119.809 282.521 118.768 282.423 117.625C282.325 116.482 280.915 115.669 279.272 115.809C277.63 115.95 276.378 116.991 276.476 118.134C276.573 119.277 277.984 120.09 279.626 119.949Z" fill="#FF6584"/>
<path d="M271.875 115.404C272.582 115.244 272.969 114.29 272.74 113.273C272.51 112.257 271.751 111.562 271.044 111.722C270.337 111.881 269.95 112.835 270.18 113.852C270.409 114.869 271.169 115.564 271.875 115.404Z" fill="#E6E6E6"/>
<path d="M266.357 104.368C267.064 104.208 267.451 103.255 267.221 102.238C266.991 101.221 266.232 100.526 265.525 100.686C264.819 100.846 264.432 101.8 264.661 102.817C264.891 103.833 265.65 104.528 266.357 104.368Z" fill="#3F3D56"/>
<path d="M292.833 119.866C293.54 119.706 293.927 118.752 293.698 117.735C293.468 116.719 292.709 116.024 292.002 116.184C291.295 116.344 290.908 117.297 291.138 118.314C291.367 119.331 292.127 120.026 292.833 119.866Z" fill="#E6E6E6"/>
<path d="M284.763 126.57C285.47 126.411 285.856 125.457 285.627 124.44C285.397 123.423 284.638 122.728 283.931 122.888C283.224 123.048 282.837 124.002 283.067 125.019C283.297 126.035 284.056 126.73 284.763 126.57Z" fill="#FF6584"/>
<path d="M299.456 132.031C300.162 131.871 300.549 130.918 300.32 129.901C300.09 128.884 299.331 128.189 298.624 128.349C297.917 128.509 297.53 129.463 297.76 130.48C297.99 131.496 298.749 132.191 299.456 132.031Z" fill="#3F3D56"/>
<path d="M212.095 48.5725C212.377 47.4603 211.31 46.2302 209.712 45.825C208.114 45.4198 206.591 45.993 206.309 47.1052C206.027 48.2175 207.094 49.4476 208.692 49.8528C210.29 50.258 211.813 49.6848 212.095 48.5725Z" fill="white"/>
<path d="M192.583 48.4467C192.865 47.3344 191.798 46.1043 190.2 45.6991C188.602 45.2939 187.079 45.8671 186.797 46.9794C186.515 48.0916 187.582 49.3218 189.18 49.7269C190.778 50.1321 192.302 49.5589 192.583 48.4467Z" fill="#3F3D56"/>
<path d="M215.757 64.7715C216.038 63.6593 214.971 62.4292 213.374 62.024C211.776 61.6188 210.252 62.192 209.97 63.3042C209.689 64.4165 210.756 65.6466 212.353 66.0518C213.951 66.457 215.475 65.8838 215.757 64.7715Z" fill="#FF6584"/>
<path d="M220.305 70.8798C220.421 69.8439 219.931 68.9388 219.211 68.8582C218.491 68.7777 217.813 69.5522 217.697 70.5882C217.582 71.6242 218.072 72.5293 218.792 72.6098C219.512 72.6903 220.19 71.9158 220.305 70.8798Z" fill="#E6E6E6"/>
<path d="M221.909 83.115C222.025 82.079 221.535 81.1739 220.815 81.0934C220.095 81.0129 219.417 81.7874 219.301 82.8234C219.186 83.8593 219.676 84.7644 220.396 84.845C221.116 84.9255 221.794 84.151 221.909 83.115Z" fill="#3F3D56"/>
<path d="M201.962 59.7983C202.077 58.7623 201.587 57.8572 200.867 57.7767C200.147 57.6962 199.469 58.4707 199.353 59.5067C199.238 60.5426 199.728 61.4477 200.448 61.5283C201.168 61.6088 201.846 60.8342 201.962 59.7983Z" fill="#E6E6E6"/>
<path d="M211.781 56.1069C211.897 55.0709 211.407 54.1658 210.686 54.0853C209.966 54.0048 209.289 54.7793 209.173 55.8153C209.057 56.8512 209.547 57.7563 210.267 57.8368C210.988 57.9174 211.665 57.1428 211.781 56.1069Z" fill="#FF6584"/>
<path d="M199.684 46.134C199.799 45.098 199.309 44.1929 198.589 44.1124C197.869 44.0319 197.191 44.8064 197.076 45.8424C196.96 46.8783 197.45 47.7834 198.17 47.8639C198.89 47.9445 199.568 47.1699 199.684 46.134Z" fill="#3F3D56"/>
<path d="M52.7931 284.25C51.3195 283.646 49.9946 282.729 48.9101 281.562C47.8256 280.395 47.0073 279.006 46.5119 277.491C46.0165 275.977 45.8559 274.372 46.041 272.79C46.2261 271.207 46.7526 269.683 47.584 268.324L15.814 223.635L26.006 211.803L63.352 265.156C65.5342 266.727 67.0648 269.044 67.6539 271.669C68.2429 274.293 67.8494 277.043 66.5478 279.396C65.2463 281.75 63.1273 283.544 60.5922 284.438C58.0571 285.333 55.2822 285.266 52.7932 284.25H52.7931Z" fill="#FFB6B6"/>
<path d="M53.523 142.633C51.9158 141.687 50.024 141.344 48.1874 141.668C46.3508 141.992 44.6896 142.96 43.5019 144.398L0.576416 204.472L40.3572 261.01L55.9236 244.28L31.7092 206.203L63.8903 175.542C66.5348 169.745 66.9387 163.173 65.0241 157.095C63.1094 151.017 59.0119 145.865 53.523 142.633Z" fill="#F50057"/>
<path d="M193.086 214.162L205.882 219.203L215.343 229.196C215.599 229.466 215.755 229.815 215.785 230.186C215.816 230.557 215.72 230.927 215.512 231.235L206.394 244.773C205.492 246.112 204.274 247.207 202.847 247.961C201.421 248.716 199.83 249.105 198.217 249.096L185.338 249.704L181.077 237.518C180.464 236.024 180.229 234.401 180.393 232.795C180.557 231.188 181.114 229.647 182.015 228.308L191.135 214.768C191.342 214.46 191.649 214.232 192.004 214.122C192.358 214.011 192.74 214.025 193.086 214.162ZM196.31 230.489L192.247 227.744L190.421 230.456L194.484 233.2L191.745 237.267L194.454 239.096L197.193 235.03L201.256 237.774L203.082 235.063L199.019 232.319L201.758 228.252L199.049 226.422L196.31 230.489Z" fill="#33C66E"/>
<defs>
<linearGradient id="paint0_linear_1734_27690" x1="435.465" y1="376.786" x2="435.465" y2="109.53" gradientUnits="userSpaceOnUse">
<stop stop-color="#808080" stop-opacity="0.25"/>
<stop offset="0.54" stop-color="#808080" stop-opacity="0.12"/>
<stop offset="1" stop-color="#808080" stop-opacity="0.1"/>
</linearGradient>
<clipPath id="clip0_1734_27690">
<rect width="525" height="372.229" fill="white" transform="translate(11 12)"/>
</clipPath>
</defs>
</svg>
