<svg width="32" height="30" viewBox="0 0 32 30" fill="none" xmlns="http://www.w3.org/2000/svg"><rect x=".375" width="31.25" height="30" rx="15" fill="#DBA391"/><g opacity=".2" fill="#000"><path d="M7.32 8.754c.232-.72.93-1.2 1.652-1.338.179.59.138 1.242-.107 1.807a1.998 1.998 0 01-1.473 1.219c-.23-.527-.276-1.145-.072-1.688zm-2.625 1.991c-.189-.717.127-1.487.643-1.992.563.467.918 1.173.956 1.903.014.55-.192 1.11-.593 1.492-.495-.319-.883-.822-1.006-1.403zm4.797-.251a2.674 2.674 0 00-1.483.558c-.214.176-.425.367-.56.613-.246.396-.347.88-.27 1.34.73.058 1.488-.247 1.94-.83.349-.478.466-1.1.373-1.68z"/><path d="M6.949 10.768c.047.04.1.078.152.116.093.068.187.136.257.222-.605.883-.9 1.947-.993 3.005-.089 1.071.062 2.153.363 3.183.534 1.818 1.523 3.469 2.666 4.968l-.104.08c-.106.082-.21.163-.318.242-.84-1.108-1.597-2.287-2.156-3.563a11.534 11.534 0 01-.829-2.683c-.28-1.56-.155-3.21.473-4.674.136-.312.297-.614.489-.896zm-3.071.492a2.954 2.954 0 00-.223.561l-.023.109c-.087.456-.046.95.179 1.362a2.32 2.32 0 001.419 1.106c.264-.48.3-1.066.13-1.584a2.68 2.68 0 00-1.482-1.554z"/><path d="M6.712 14.83c.282-.848 1.087-1.466 1.953-1.63.17.57.13 1.21-.162 1.733-.36.599-1.02.986-1.71 1.05a.22.22 0 00-.028.002c-.035.004-.075.008-.077-.038a1.961 1.961 0 01.024-1.116zm-1.695.144a2.653 2.653 0 00-1.553-.875c-.159.572-.11 1.212.192 1.73.384.621 1.097.998 1.82 1.029.195-.653-.005-1.386-.46-1.884zm2.482 1.843a2.69 2.69 0 011.627-1.34c.225.552.247 1.197 0 1.745-.314.658-.979 1.112-1.693 1.22a2 2 0 01.066-1.625zm1.984.883a2.678 2.678 0 00-1.172 1.73c-.097.556.04 1.155.4 1.596.656-.308 1.163-.935 1.273-1.657.078-.596-.13-1.204-.501-1.668zm-6.041-.719a2.636 2.636 0 011.738.36c.59.33 1.007.98 1.01 1.663-.564.14-1.188.096-1.696-.198-.665-.341-1.027-1.1-1.052-1.825zm2.92 2.845a2.647 2.647 0 00-1.753-.143c.11.707.547 1.404 1.232 1.674.515.23 1.116.221 1.644.038a.151.151 0 01.033-.013c.033-.011.07-.023.058-.061a1.994 1.994 0 00-1.214-1.495z"/></g><path d="M13.08 19.5l.684-1.512.672-1.5 1.044-2.322c.132-.284.26-.568.384-.852l.384-.852.36.366H12.3V11.25h5.904v1.23a870.74 870.74 0 00-1.2 2.718l-.69 1.566c-.196.456-.396.912-.6 1.368-.2.452-.4.908-.6 1.368H13.08z" fill="#000"/><g opacity=".2" fill="#000"><path d="M23.68 8.754c-.232-.72-.93-1.2-1.652-1.338a2.651 2.651 0 00.107 1.807 1.998 1.998 0 001.473 1.219c.23-.527.276-1.145.072-1.688zm2.625 1.991c.189-.717-.127-1.487-.643-1.992a2.686 2.686 0 00-.956 1.903c-.014.55.192 1.11.593 1.492.495-.319.883-.822 1.006-1.403zm-4.797-.251a2.67 2.67 0 011.483.558c.214.176.425.367.56.613.246.396.347.88.27 1.34-.73.058-1.488-.247-1.94-.83-.349-.478-.466-1.1-.373-1.68z"/><path d="M24.051 10.768c-.047.04-.1.078-.152.116-.093.068-.187.136-.257.222.605.883.9 1.947.993 3.005.089 1.071-.062 2.153-.363 3.183-.534 1.818-1.523 3.469-2.666 4.968l.104.08c.106.082.21.163.318.242.84-1.108 1.597-2.287 2.156-3.563.378-.858.67-1.758.828-2.683.28-1.56.156-3.21-.472-4.674a5.466 5.466 0 00-.489-.896zm3.071.492c.095.178.166.368.223.561l.023.109c.087.456.046.95-.179 1.362a2.32 2.32 0 01-1.419 1.106 2.011 2.011 0 01-.13-1.584 2.68 2.68 0 011.482-1.554z"/><path d="M24.288 14.83c-.282-.848-1.087-1.466-1.953-1.63-.17.57-.13 1.21.162 1.733.36.599 1.02.986 1.71 1.05a.22.22 0 01.028.002c.035.004.075.008.077-.038a1.96 1.96 0 00-.024-1.116zm1.695.144c.395-.46.956-.773 1.553-.875.159.572.11 1.212-.192 1.73-.384.621-1.097.998-1.82 1.029-.195-.653.005-1.386.46-1.884zm-2.482 1.843a2.69 2.69 0 00-1.627-1.34c-.225.552-.247 1.197 0 1.745.314.658.979 1.112 1.693 1.22a2 2 0 00-.066-1.625zm-1.984.883a2.678 2.678 0 011.172 1.73 2.006 2.006 0 01-.4 1.596c-.656-.308-1.163-.935-1.273-1.657-.077-.596.13-1.204.502-1.668zm6.041-.719a2.636 2.636 0 00-1.738.36c-.59.33-1.007.98-1.01 1.663.564.14 1.188.096 1.696-.198.665-.341 1.026-1.1 1.052-1.825zm-2.92 2.845a2.647 2.647 0 011.753-.143c-.11.707-.547 1.404-1.232 1.674-.515.23-1.116.221-1.644.038a.176.176 0 00-.033-.013c-.033-.011-.07-.023-.058-.061a1.994 1.994 0 011.214-1.495z"/></g><rect x=".875" y=".5" width="30.25" height="29" rx="14.5" stroke="#000" stroke-opacity=".1"/></svg>