<svg width="34" height="30" viewBox="0 0 34 30" fill="none" xmlns="http://www.w3.org/2000/svg"><rect x=".875" width="32.25" height="30" rx="15" fill="#ECECEC"/><g opacity=".2" fill="#000"><path d="M7.82 8.754c.232-.72.93-1.2 1.652-1.338.179.59.138 1.242-.107 1.807a1.998 1.998 0 01-1.473 1.219c-.23-.527-.276-1.145-.072-1.688zm-2.625 1.991c-.189-.717.127-1.487.643-1.992.563.467.918 1.173.956 1.903.014.55-.192 1.11-.593 1.492-.495-.319-.883-.822-1.006-1.403zm4.797-.251a2.674 2.674 0 00-1.483.558c-.214.176-.425.367-.56.613-.246.396-.347.88-.27 1.34.73.058 1.488-.247 1.94-.83.349-.478.466-1.1.373-1.68z"/><path d="M7.449 10.768c.047.04.1.078.152.116.093.068.187.136.257.222-.605.883-.9 1.947-.993 3.005-.089 1.071.062 2.153.363 3.183.534 1.818 1.523 3.469 2.666 4.968l-.104.08c-.106.082-.21.163-.318.242-.84-1.108-1.597-2.287-2.156-3.563a11.534 11.534 0 01-.829-2.683c-.28-1.56-.155-3.21.473-4.674.136-.312.297-.614.489-.896zm-3.071.492a2.954 2.954 0 00-.223.561l-.023.109c-.087.456-.046.95.179 1.362a2.32 2.32 0 001.419 1.106c.264-.48.3-1.066.13-1.584a2.68 2.68 0 00-1.482-1.554z"/><path d="M7.212 14.83c.282-.848 1.087-1.466 1.953-1.63.17.57.13 1.21-.162 1.733-.36.599-1.02.986-1.71 1.05a.22.22 0 00-.028.002c-.035.004-.075.008-.077-.038a1.961 1.961 0 01.024-1.116zm-1.695.144a2.653 2.653 0 00-1.553-.875c-.159.572-.11 1.212.192 1.73.384.621 1.097.998 1.82 1.029.195-.653-.005-1.386-.46-1.884zm2.482 1.843a2.69 2.69 0 011.627-1.34c.225.552.247 1.197 0 1.745-.314.658-.979 1.112-1.693 1.22A2 2 0 018 16.817zm1.984.883a2.678 2.678 0 00-1.172 1.73c-.097.556.04 1.155.4 1.596.656-.308 1.163-.935 1.273-1.657.078-.596-.13-1.204-.501-1.668zm-6.041-.719a2.636 2.636 0 011.738.36c.59.33 1.007.98 1.01 1.663-.564.14-1.188.096-1.696-.198-.665-.341-1.027-1.1-1.052-1.825zm2.92 2.845a2.647 2.647 0 00-1.753-.143c.11.707.547 1.404 1.232 1.674.515.23 1.116.221 1.644.038a.151.151 0 01.033-.013c.033-.011.07-.023.058-.061a1.994 1.994 0 00-1.214-1.495z"/></g><path d="M16.388 19.656c-.744 0-1.366-.158-1.866-.474-.496-.316-.87-.784-1.122-1.404-.252-.624-.378-1.396-.378-2.316 0-.764.084-1.424.252-1.98.168-.556.408-1.01.72-1.362a2.83 2.83 0 011.116-.786c.432-.172.91-.258 1.434-.258.224 0 .442.012.654.036.212.024.416.06.612.108.196.044.386.096.57.156.188.06.368.126.54.198l-.162 1.662a3.587 3.587 0 00-.51-.258 4.073 4.073 0 00-1.068-.294 3.282 3.282 0 00-.516-.042c-.456 0-.818.104-1.086.312-.268.204-.462.518-.582.942-.116.424-.174.96-.174 1.608 0 .608.06 1.104.18 1.488.12.38.29.66.51.84.224.18.488.27.792.27.292 0 .532-.062.72-.186.192-.128.334-.294.426-.498.092-.204.138-.426.138-.666 0-.24-.046-.454-.138-.642a.994.994 0 00-.408-.444c-.184-.112-.42-.168-.708-.168-.12 0-.244.01-.372.03a1.856 1.856 0 00-.774.324 2.204 2.204 0 00-.396.348 2.028 2.028 0 01-.288-.456.54.54 0 010-.372 2.27 2.27 0 01.276-.48l.204.012c.116-.116.244-.218.384-.306a2.523 2.523 0 01.972-.378c.184-.036.376-.054.576-.054.496 0 .932.104 1.308.312.38.208.674.502.882.882.212.38.318.83.318 1.35 0 .504-.108.982-.324 1.434a2.611 2.611 0 01-.996 1.092c-.448.28-1.02.42-1.716.42z" fill="#000"/><g opacity=".2" fill="#000"><path d="M25.18 8.754c-.232-.72-.93-1.2-1.652-1.338a2.651 2.651 0 00.107 1.807 1.998 1.998 0 001.473 1.219c.23-.527.276-1.145.072-1.688zm2.625 1.991c.189-.717-.127-1.487-.642-1.992a2.685 2.685 0 00-.957 1.903c-.014.55.192 1.11.593 1.492.495-.319.883-.822 1.006-1.403zm-4.797-.251a2.67 2.67 0 011.483.558c.214.176.425.367.561.613.245.396.346.88.268 1.34-.729.058-1.487-.247-1.938-.83-.35-.478-.467-1.1-.374-1.68z"/><path d="M25.552 10.768c-.048.04-.1.078-.152.116a1.323 1.323 0 00-.258.222c.605.883.9 1.947.993 3.005.089 1.071-.062 2.153-.363 3.183-.534 1.818-1.523 3.469-2.666 4.968l.104.08c.106.082.21.163.318.242.84-1.108 1.597-2.287 2.156-3.563.378-.858.67-1.758.829-2.683.28-1.56.155-3.21-.473-4.674a5.465 5.465 0 00-.488-.896zm3.07.492c.095.178.166.368.223.561l.023.109c.087.456.046.95-.179 1.362a2.32 2.32 0 01-1.419 1.106 2.011 2.011 0 01-.13-1.584 2.68 2.68 0 011.482-1.554z"/><path d="M25.788 14.83c-.282-.848-1.087-1.466-1.953-1.63-.17.57-.13 1.21.162 1.733.36.599 1.02.986 1.71 1.05a.22.22 0 01.028.002c.035.004.075.008.077-.038a1.962 1.962 0 00-.024-1.116zm1.695.144c.395-.46.956-.773 1.553-.875.159.572.11 1.212-.192 1.73-.384.621-1.097.998-1.82 1.029-.195-.653.005-1.386.46-1.884zm-2.481 1.843a2.69 2.69 0 00-1.628-1.34c-.225.552-.246 1.197 0 1.745.314.658.979 1.112 1.693 1.22A2 2 0 0025 16.817zm-1.985.883a2.678 2.678 0 011.172 1.73 2.006 2.006 0 01-.4 1.596c-.656-.308-1.163-.935-1.273-1.657-.077-.596.13-1.204.502-1.668zm6.041-.719a2.636 2.636 0 00-1.738.36c-.59.33-1.007.98-1.01 1.663.564.14 1.188.096 1.696-.198.665-.341 1.027-1.1 1.052-1.825zm-2.92 2.845a2.648 2.648 0 011.753-.143c-.11.707-.547 1.404-1.232 1.674-.515.23-1.116.221-1.644.038a.151.151 0 00-.033-.013c-.033-.011-.07-.023-.058-.061a1.993 1.993 0 011.214-1.495z"/></g><rect x="1.375" y=".5" width="31.25" height="29" rx="14.5" stroke="#000" stroke-opacity=".1"/></svg>