<?xml version="1.0" standalone="no"?>
<!DOCTYPE svg PUBLIC "-//W3C//DTD SVG 20010904//EN"
 "http://www.w3.org/TR/2001/REC-SVG-20010904/DTD/svg10.dtd">
<svg version="1.0" xmlns="http://www.w3.org/2000/svg"
 width="512.000000pt" height="512.000000pt" viewBox="0 0 512.000000 512.000000"
 preserveAspectRatio="xMidYMid meet">
<metadata>
Created by potrace 1.14, written by Peter Selinger 2001-2017
</metadata>
<g transform="translate(0.000000,512.000000) scale(0.100000,-0.100000)"
fill="#1e1e1e" stroke="none">
<path d="M2485 5053 c-16 -8 -70 -61 -118 -117 -48 -56 -98 -113 -110 -127
-29 -32 -165 -187 -197 -225 -14 -16 -72 -83 -130 -149 -58 -66 -116 -133
-130 -149 -14 -16 -32 -37 -40 -46 -8 -9 -44 -49 -80 -90 -36 -41 -79 -91 -96
-110 -17 -19 -84 -96 -149 -170 -65 -74 -143 -164 -174 -199 -64 -73 -65 -74
-174 -200 -45 -52 -93 -106 -106 -120 -13 -14 -44 -51 -70 -81 -25 -30 -64
-75 -87 -100 -22 -25 -78 -88 -124 -140 -105 -121 -135 -156 -179 -205 -20
-22 -61 -69 -91 -104 -30 -36 -59 -69 -65 -75 -5 -6 -23 -29 -40 -51 -135
-181 -231 -381 -279 -586 -38 -157 -38 -162 -41 -344 -3 -154 2 -217 29 -370
12 -68 58 -209 91 -282 15 -32 31 -68 36 -80 12 -33 114 -198 155 -251 220
-289 538 -500 879 -583 44 -11 96 -22 115 -24 19 -3 64 -9 100 -14 67 -10 326
-7 370 3 14 3 43 8 65 11 205 29 445 131 625 266 50 38 94 69 97 69 3 0 25
-17 49 -38 65 -58 173 -128 276 -179 50 -25 96 -46 102 -48 6 -1 23 -7 38 -13
46 -19 210 -60 268 -67 30 -4 64 -9 75 -11 28 -6 294 -5 325 0 14 3 48 7 75
11 328 41 644 202 887 451 42 44 91 97 108 119 17 22 37 48 45 58 35 41 120
187 159 271 67 142 118 309 134 441 9 75 9 363 0 430 -41 310 -170 593 -383
841 -134 155 -181 210 -190 222 -5 7 -20 23 -31 35 -12 12 -62 69 -110 127
-49 58 -96 114 -106 125 -9 11 -26 31 -38 45 -12 14 -45 52 -74 85 -29 33 -85
98 -125 145 -40 47 -95 110 -121 140 -26 30 -94 109 -151 175 -170 199 -284
330 -289 335 -3 3 -64 73 -135 155 -136 157 -335 385 -389 445 -17 19 -63 71
-101 115 -119 135 -199 216 -227 231 -35 18 -115 17 -153 -3z m210 -483 c22
-25 85 -97 140 -160 55 -63 102 -117 105 -120 3 -3 32 -36 65 -75 33 -38 65
-74 71 -80 6 -5 53 -59 105 -120 51 -60 98 -115 104 -121 14 -15 50 -58 115
-134 30 -36 57 -67 60 -70 3 -3 32 -36 65 -75 33 -38 62 -72 65 -75 3 -3 32
-36 65 -75 33 -38 72 -83 86 -100 33 -38 158 -182 224 -260 28 -32 64 -75 81
-94 18 -20 64 -74 104 -121 40 -47 84 -98 99 -115 14 -16 78 -91 141 -165 63
-74 125 -146 138 -160 43 -47 121 -167 162 -248 43 -88 96 -235 106 -298 3
-21 7 -41 9 -45 9 -13 19 -164 18 -264 -1 -191 -46 -369 -139 -552 -30 -59
-62 -116 -72 -127 -10 -12 -31 -40 -46 -63 -28 -42 -151 -172 -214 -226 -18
-15 -67 -51 -109 -78 -69 -44 -114 -68 -233 -122 -43 -19 -173 -54 -260 -69
-83 -14 -310 -19 -375 -8 -27 5 -67 12 -89 15 -115 19 -299 101 -419 187 -77
55 -97 72 -97 84 0 4 23 43 51 87 121 188 227 473 253 678 2 19 7 50 10 69 18
113 24 356 11 476 -29 265 -139 598 -315 953 -75 150 -95 182 -125 201 -62 38
-139 33 -193 -14 -46 -41 -249 -431 -332 -640 -37 -95 -96 -287 -104 -341 -3
-22 -7 -49 -10 -61 -24 -115 -25 -396 -1 -522 1 -9 6 -37 10 -62 4 -25 9 -54
11 -65 2 -11 7 -33 10 -50 23 -132 126 -406 194 -516 16 -27 30 -51 30 -54 0
-3 20 -35 45 -71 44 -64 45 -67 28 -86 -22 -24 -162 -118 -221 -147 -106 -54
-264 -100 -392 -115 -52 -7 -253 -8 -290 -2 -14 2 -45 7 -70 10 -490 75 -912
463 -1035 951 -78 311 -39 641 109 915 72 135 131 212 331 434 6 6 39 45 75
86 35 41 71 82 80 91 8 9 35 40 59 69 25 29 50 58 56 64 5 6 39 45 75 86 36
41 74 84 85 96 11 12 43 48 70 80 28 32 70 81 95 109 25 28 72 82 105 120 33
38 65 73 70 79 6 6 71 81 145 166 74 85 147 169 161 185 15 17 77 89 140 160
62 72 115 132 118 135 3 3 33 37 66 75 33 39 64 75 70 81 5 6 80 90 165 188
l155 178 45 -49 c25 -27 63 -69 85 -93z m0 -2221 c40 -116 82 -272 91 -339 3
-25 10 -67 14 -95 8 -52 6 -328 -3 -380 -3 -16 -8 -46 -11 -65 -30 -198 -105
-412 -194 -555 l-30 -48 -28 44 c-88 139 -177 370 -208 544 -3 17 -8 41 -11
55 -26 124 -27 400 -2 520 32 154 103 348 199 543 l50 101 49 -112 c27 -62 65
-158 84 -213z"/>
</g>
</svg>
