<svg width="20" height="6" viewBox="0 0 20 6" fill="none" xmlns="http://www.w3.org/2000/svg"><g clip-path="url(#clip0)"><path fill="#D8D8D8" fill-opacity=".01" d="M-10-13h30v30h-30z"/><mask id="a" fill="#fff"><path fill-rule="evenodd" clip-rule="evenodd" d="M1.8.37A1 1 0 00.386 1.783L4.293 5.69a1 1 0 001.414 0l3.907-3.906A1 1 0 108.2.369L5 3.57 1.8.369z"/></mask><path d="M5 3.569L3.586 4.983 5 6.397l1.414-1.414L5 3.57zM1.8 1.784a1 1 0 01-1.414 0l2.828-2.829a3 3 0 00-4.242 0L1.8 1.784zm0-1.415a1 1 0 010 1.415l-2.828-2.829a3 3 0 000 4.243L1.8.369zm3.907 3.907L1.8.37l-2.828 2.829 3.907 3.907 2.828-2.829zm-1.414 0a1 1 0 011.414 0L2.88 7.105a3 3 0 004.242 0L4.293 4.276zM8.2.37L4.293 4.276 7.12 7.105l3.907-3.907L8.2.369zm0 1.415A1 1 0 018.2.37l2.828 2.829a3 3 0 000-4.243L8.2 1.784zm1.414 0a1 1 0 01-1.414 0l2.828-2.829a3 3 0 00-4.242 0l2.828 2.829zm-3.2 3.2l3.2-3.2-2.828-2.829-3.2 3.2 2.828 2.828zm-6.028-3.2l3.2 3.2 2.828-2.83-3.2-3.199L.386 1.784z" fill="#000" mask="url(#a)"/></g><defs><clipPath id="clip0"><path fill="#fff" d="M0 0h20v6H0z"/></clipPath></defs></svg>