<svg width="272" height="42" viewBox="0 0 272 42" fill="none" xmlns="http://www.w3.org/2000/svg">
<path d="M9.9312 33.672C7.48213 33.672 5.39146 33.0896 3.65919 31.9248C1.92693 30.76 0.777061 29.1622 0.209595 27.1312L4.91359 25.9664L5.40639 26.056C5.6752 27.0118 6.24266 27.7734 7.1088 28.3408C8.0048 28.8784 9.03519 29.1472 10.2 29.1472C11.3349 29.1472 12.2907 28.9083 13.0672 28.4304C13.8736 27.9227 14.2768 27.2806 14.2768 26.504C14.2768 25.847 14.0379 25.3243 13.56 24.936C13.112 24.5179 12.4101 24.2043 11.4544 23.9952L7.1984 23.0544C5.10773 22.5766 3.50986 21.7851 2.40479 20.68C1.32959 19.5451 0.791995 18.1862 0.791995 16.6032C0.791995 15.2294 1.16533 14.0347 1.91199 13.0192C2.68853 11.9739 3.74879 11.1675 5.09279 10.6C6.43679 10.0027 7.97493 9.70402 9.7072 9.70402C12.0667 9.70402 14.0677 10.2864 15.7104 11.4512C17.3531 12.616 18.4432 14.2438 18.9808 16.3344L14.5008 17.2752L14.008 17.1856C13.7691 16.2896 13.2165 15.5728 12.3504 15.0352C11.5141 14.4976 10.5584 14.2288 9.4832 14.2288C8.46773 14.2288 7.60159 14.4379 6.8848 14.856C6.19786 15.2443 5.85439 15.7819 5.85439 16.4688C5.85439 16.9766 6.06346 17.4395 6.4816 17.8576C6.89973 18.2459 7.5568 18.5296 8.4528 18.7088L12.7088 19.6944C14.9189 20.2022 16.5765 20.9787 17.6816 22.024C18.8165 23.0395 19.384 24.4283 19.384 26.1904C19.384 27.7136 18.9659 29.0427 18.1296 30.1776C17.3232 31.2827 16.2032 32.1488 14.7696 32.776C13.3659 33.3734 11.7531 33.672 9.9312 33.672Z" fill="white"/>
<path d="M28.8067 33L21.3251 10.7344V10.376H26.4771L33.0179 31.3872L33.8243 33H28.8067ZM28.8067 33L29.7027 31.3872L36.3779 10.376H41.4851L40.9027 10.7344L33.8243 33H28.8067ZM44.0387 33L36.9603 10.7344L36.3779 10.376H41.4851L48.1603 31.3872L49.0563 33H44.0387ZM44.0387 33L44.8451 31.3872L51.3859 10.376H56.5379V10.7344L49.0563 33H44.0387Z" fill="white"/>
<path d="M69.4868 33.672C67.1871 33.672 65.1562 33.1643 63.394 32.1488C61.6618 31.1334 60.3028 29.7296 59.3172 27.9376C58.3316 26.1456 57.8388 24.055 57.8388 21.6656C57.8388 19.3062 58.3167 17.2304 59.2724 15.4384C60.258 13.6166 61.602 12.2128 63.3044 11.2272C65.0367 10.2118 67.0228 9.70402 69.2628 9.70402C71.5028 9.70402 73.4442 10.2267 75.0868 11.272C76.7594 12.2875 78.0586 13.7211 78.9844 15.5728C79.9402 17.4246 80.418 19.5899 80.418 22.0688V22.92L79.746 23.592H60.258V19.2912H78.0884L75.3556 20.3216C75.3258 19.0672 75.0271 17.992 74.4596 17.096C73.922 16.1702 73.2052 15.4683 72.3092 14.9904C71.4431 14.4827 70.4575 14.2288 69.3524 14.2288C68.1578 14.2288 67.0676 14.5126 66.082 15.08C65.0964 15.6176 64.3348 16.3792 63.7972 17.3648C63.2596 18.3206 62.9908 19.4406 62.9908 20.7248V22.5168C62.9908 23.7414 63.2746 24.8614 63.842 25.8768C64.4394 26.8624 65.2308 27.6539 66.2164 28.2512C67.202 28.8486 68.2922 29.1472 69.4868 29.1472C70.6218 29.1472 71.6522 28.8486 72.578 28.2512C73.5338 27.624 74.2804 26.7878 74.818 25.7424H75.3556L79.522 27.5344C78.626 29.4758 77.297 30.984 75.5348 32.0592C73.8026 33.1344 71.7866 33.672 69.4868 33.672Z" fill="white"/>
<path d="M95.3431 33.672C93.0434 33.672 91.0124 33.1643 89.2503 32.1488C87.518 31.1334 86.1591 29.7296 85.1735 27.9376C84.1879 26.1456 83.6951 24.055 83.6951 21.6656C83.6951 19.3062 84.173 17.2304 85.1287 15.4384C86.1143 13.6166 87.4583 12.2128 89.1607 11.2272C90.893 10.2118 92.8791 9.70402 95.1191 9.70402C97.3591 9.70402 99.3004 10.2267 100.943 11.272C102.616 12.2875 103.915 13.7211 104.841 15.5728C105.796 17.4246 106.274 19.5899 106.274 22.0688V22.92L105.602 23.592H86.1143V19.2912H103.945L101.212 20.3216C101.182 19.0672 100.883 17.992 100.316 17.096C99.7783 16.1702 99.0615 15.4683 98.1655 14.9904C97.2994 14.4827 96.3138 14.2288 95.2087 14.2288C94.014 14.2288 92.9239 14.5126 91.9383 15.08C90.9527 15.6176 90.1911 16.3792 89.6535 17.3648C89.1159 18.3206 88.8471 19.4406 88.8471 20.7248V22.5168C88.8471 23.7414 89.1308 24.8614 89.6983 25.8768C90.2956 26.8624 91.0871 27.6539 92.0727 28.2512C93.0583 28.8486 94.1484 29.1472 95.3431 29.1472C96.478 29.1472 97.5084 28.8486 98.4343 28.2512C99.39 27.624 100.137 26.7878 100.674 25.7424H101.212L105.378 27.5344C104.482 29.4758 103.153 30.984 101.391 32.0592C99.6588 33.1344 97.6428 33.672 95.3431 33.672Z" fill="white"/>
<path d="M119.115 33C116.905 33 115.142 32.3131 113.828 30.9392C112.514 29.5355 111.857 27.6539 111.857 25.2944V4.50722H117.009V24.7568C117.009 25.9515 117.308 26.8475 117.905 27.4448C118.532 28.0422 119.428 28.3408 120.593 28.3408H122.923L123.147 28.8336V33H119.115ZM108.004 14.9904V10.376H123.147V14.9904H108.004Z" fill="white"/>
<path d="M135.975 33.672C133.526 33.672 131.435 33.0896 129.703 31.9248C127.971 30.76 126.821 29.1622 126.253 27.1312L130.957 25.9664L131.45 26.056C131.719 27.0118 132.286 27.7734 133.153 28.3408C134.049 28.8784 135.079 29.1472 136.244 29.1472C137.379 29.1472 138.334 28.9083 139.111 28.4304C139.917 27.9227 140.321 27.2806 140.321 26.504C140.321 25.847 140.082 25.3243 139.604 24.936C139.156 24.5179 138.454 24.2043 137.498 23.9952L133.242 23.0544C131.151 22.5766 129.554 21.7851 128.449 20.68C127.373 19.5451 126.836 18.1862 126.836 16.6032C126.836 15.2294 127.209 14.0347 127.956 13.0192C128.732 11.9739 129.793 11.1675 131.137 10.6C132.481 10.0027 134.019 9.70402 135.751 9.70402C138.11 9.70402 140.111 10.2864 141.754 11.4512C143.397 12.616 144.487 14.2438 145.025 16.3344L140.545 17.2752L140.052 17.1856C139.813 16.2896 139.26 15.5728 138.394 15.0352C137.558 14.4976 136.602 14.2288 135.527 14.2288C134.511 14.2288 133.645 14.4379 132.929 14.856C132.242 15.2443 131.898 15.7819 131.898 16.4688C131.898 16.9766 132.107 17.4395 132.525 17.8576C132.943 18.2459 133.601 18.5296 134.497 18.7088L138.753 19.6944C140.963 20.2022 142.62 20.9787 143.725 22.024C144.86 23.0395 145.428 24.4283 145.428 26.1904C145.428 27.7136 145.01 29.0427 144.173 30.1776C143.367 31.2827 142.247 32.1488 140.813 32.776C139.41 33.3734 137.797 33.672 135.975 33.672Z" fill="white"/>
<path d="M149.654 33V10.376H154.492V16.1552L153.193 16.0656C153.671 14.7515 154.358 13.6315 155.254 12.7056C156.15 11.7499 157.195 11.0182 158.39 10.5104C159.584 9.97282 160.884 9.70402 162.287 9.70402C163.9 9.70402 165.349 10.0624 166.633 10.7792C167.947 11.4662 168.977 12.4966 169.724 13.8704C170.501 15.2144 170.889 16.9019 170.889 18.9328V33H165.737V20.5008C165.737 19.0672 165.543 17.9024 165.154 17.0064C164.766 16.1104 164.199 15.4534 163.452 15.0352C162.735 14.6171 161.899 14.408 160.943 14.408C160.047 14.408 159.121 14.632 158.166 15.08C157.24 15.528 156.448 16.2747 155.791 17.32C155.134 18.3654 154.806 19.784 154.806 21.576V33H149.654Z" fill="white"/>
<path d="M176.341 33V10.376H181.493V33H176.341ZM178.94 6.97122C178.044 6.97122 177.282 6.65762 176.655 6.03042C176.028 5.40322 175.714 4.62669 175.714 3.70082C175.714 2.83469 176.028 2.08802 176.655 1.46082C177.282 0.803755 178.058 0.475222 178.984 0.475222C179.85 0.475222 180.597 0.803755 181.224 1.46082C181.881 2.08802 182.21 2.84962 182.21 3.74562C182.21 4.64162 181.881 5.40322 181.224 6.03042C180.597 6.65762 179.836 6.97122 178.94 6.97122Z" fill="white"/>
<path d="M194.728 41.96C191.682 41.96 189.292 41.3627 187.56 40.168C185.828 39.0032 184.962 37.3755 184.962 35.2848C184.962 33.9408 185.32 32.7611 186.037 31.7456C186.784 30.7302 187.844 29.9387 189.218 29.3712L191.726 31.5216C191.099 31.7904 190.606 32.1936 190.248 32.7312C189.919 33.2688 189.755 33.8512 189.755 34.4784C189.755 35.3446 190.084 36.1062 190.741 36.7632C191.428 37.4203 192.533 37.7488 194.056 37.7488H197.192C198.805 37.7488 200.014 37.5099 200.821 37.032C201.627 36.584 202.03 35.912 202.03 35.016C202.03 34.2992 201.732 33.7467 201.134 33.3584C200.567 32.9702 199.776 32.776 198.76 32.776H193.16C191.846 32.776 190.666 32.552 189.621 32.104C188.605 31.656 187.799 31.0438 187.202 30.2672C186.604 29.4608 186.306 28.5499 186.306 27.5344C186.306 26.3995 186.649 25.399 187.336 24.5328C188.053 23.6368 189.068 22.92 190.382 22.3824L193.16 24.6224C192.443 24.6822 191.891 24.936 191.502 25.384C191.114 25.8022 190.92 26.2502 190.92 26.728C190.92 27.3254 191.159 27.8032 191.637 28.1616C192.115 28.4902 192.846 28.6544 193.832 28.6544H199.298C201.568 28.6544 203.374 29.2219 204.718 30.3568C206.092 31.4918 206.779 33 206.779 34.8816C206.779 37.032 205.913 38.7494 204.181 40.0336C202.449 41.3179 200.104 41.96 197.147 41.96H194.728ZM196.072 25.7872C194.22 25.7872 192.593 25.4438 191.189 24.7568C189.785 24.0699 188.68 23.1291 187.874 21.9344C187.097 20.7099 186.709 19.3062 186.709 17.7232C186.709 16.1403 187.097 14.7515 187.874 13.5568C188.68 12.3622 189.785 11.4214 191.189 10.7344C192.593 10.0475 194.22 9.70402 196.072 9.70402C197.924 9.70402 199.537 10.0475 200.91 10.7344C202.314 11.4214 203.404 12.3622 204.181 13.5568C204.987 14.7515 205.39 16.1403 205.39 17.7232C205.39 19.3062 204.987 20.7099 204.181 21.9344C203.404 23.1291 202.314 24.0699 200.91 24.7568C199.537 25.4438 197.924 25.7872 196.072 25.7872ZM196.072 21.6656C197.416 21.6656 198.506 21.3072 199.342 20.5904C200.179 19.8438 200.597 18.888 200.597 17.7232C200.597 16.5584 200.179 15.6176 199.342 14.9008C198.506 14.184 197.416 13.8256 196.072 13.8256C194.698 13.8256 193.593 14.184 192.757 14.9008C191.95 15.6176 191.547 16.5584 191.547 17.7232C191.547 18.888 191.95 19.8438 192.757 20.5904C193.593 21.3072 194.698 21.6656 196.072 21.6656ZM202.613 13.6912L199.387 12.1232C199.387 10.8091 199.641 9.64429 200.149 8.62882C200.657 7.61336 201.344 6.82189 202.21 6.25442C203.106 5.65709 204.106 5.35842 205.211 5.35842C205.54 5.35842 205.853 5.37335 206.152 5.40322C206.451 5.40322 206.675 5.43309 206.824 5.49282V9.83842L206.6 10.2864C206.301 10.1968 205.928 10.152 205.48 10.152C204.524 10.152 203.808 10.4806 203.33 11.1376C202.852 11.7947 202.613 12.6459 202.613 13.6912Z" fill="white"/>
<path d="M210.603 33V0.744021L215.62 0.116821L215.755 0.475222V16.1552L214.142 16.0656C214.62 14.7515 215.307 13.6315 216.203 12.7056C217.099 11.7499 218.144 11.0182 219.339 10.5104C220.533 9.97282 221.833 9.70402 223.236 9.70402C224.849 9.70402 226.298 10.0624 227.582 10.7792C228.896 11.4662 229.926 12.4966 230.673 13.8704C231.45 15.2144 231.838 16.9019 231.838 18.9328V33H226.686V20.5008C226.686 19.0672 226.492 17.9024 226.103 17.0064C225.715 16.1104 225.148 15.4534 224.401 15.0352C223.684 14.6171 222.848 14.408 221.892 14.408C220.996 14.408 220.07 14.632 219.115 15.08C218.189 15.528 217.397 16.2747 216.74 17.32C216.083 18.3654 215.755 19.784 215.755 21.576V33H210.603Z" fill="white"/>
<path d="M244.983 33C242.773 33 241.011 32.3131 239.697 30.9392C238.383 29.5355 237.726 27.6539 237.726 25.2944V4.50722H242.878V24.7568C242.878 25.9515 243.177 26.8475 243.774 27.4448C244.401 28.0422 245.297 28.3408 246.462 28.3408H248.791L249.015 28.8336V33H244.983ZM233.873 14.9904V10.376H249.015V14.9904H233.873Z" fill="white"/>
<path d="M261.844 33.672C259.395 33.672 257.304 33.0896 255.572 31.9248C253.839 30.76 252.69 29.1622 252.122 27.1312L256.826 25.9664L257.319 26.056C257.588 27.0118 258.155 27.7734 259.021 28.3408C259.917 28.8784 260.948 29.1472 262.112 29.1472C263.247 29.1472 264.203 28.9083 264.98 28.4304C265.786 27.9227 266.189 27.2806 266.189 26.504C266.189 25.847 265.95 25.3243 265.472 24.936C265.024 24.5179 264.323 24.2043 263.367 23.9952L259.111 23.0544C257.02 22.5766 255.422 21.7851 254.317 20.68C253.242 19.5451 252.704 18.1862 252.704 16.6032C252.704 15.2294 253.078 14.0347 253.824 13.0192C254.601 11.9739 255.661 11.1675 257.005 10.6C258.349 10.0027 259.887 9.70402 261.62 9.70402C263.979 9.70402 265.98 10.2864 267.623 11.4512C269.266 12.616 270.356 14.2438 270.893 16.3344L266.413 17.2752L265.92 17.1856C265.682 16.2896 265.129 15.5728 264.263 15.0352C263.427 14.4976 262.471 14.2288 261.396 14.2288C260.38 14.2288 259.514 14.4379 258.797 14.856C258.11 15.2443 257.767 15.7819 257.767 16.4688C257.767 16.9766 257.976 17.4395 258.394 17.8576C258.812 18.2459 259.469 18.5296 260.365 18.7088L264.621 19.6944C266.831 20.2022 268.489 20.9787 269.594 22.024C270.729 23.0395 271.296 24.4283 271.296 26.1904C271.296 27.7136 270.878 29.0427 270.042 30.1776C269.236 31.2827 268.116 32.1488 266.682 32.776C265.278 33.3734 263.666 33.672 261.844 33.672Z" fill="white"/>
</svg>
