<svg width="21" height="20" viewBox="0 0 21 20" fill="none" xmlns="http://www.w3.org/2000/svg">
<path d="M3.63281 0.0324998C1.95 0.266875 0.628125 1.41062 0.126562 3.05594C0.009375 3.43563 0 3.54813 0 4.18094C0 4.81375 0.009375 4.92625 0.126562 5.30594C0.35625 6.06063 0.932812 6.97938 1.35 7.25125C1.5375 7.37313 1.79531 7.41063 2.03437 7.345C2.21719 7.29344 2.49844 7.03094 4.66875 4.87C6.00469 3.53406 7.14844 2.37156 7.21406 2.27781C7.56094 1.78094 7.35 1.27937 6.58125 0.76375C5.7 0.173125 4.59375 -0.0987501 3.63281 0.0324998ZM4.99219 1.79031C5.11875 1.8325 5.22656 1.88406 5.23594 1.90281C5.25 1.92156 4.50469 2.69031 3.57656 3.61844L1.89844 5.29656L1.82812 5.16063C1.63594 4.78094 1.58437 3.99344 1.725 3.51531C1.97344 2.66219 2.65312 1.97781 3.4875 1.74344C3.82031 1.64969 4.68281 1.67781 4.99219 1.79031Z" fill="#FF5E7D"/>
<path d="M16.0312 0.0232239C15.3375 0.121661 14.7234 0.356036 14.1281 0.754474C13.3593 1.2701 13.1484 1.77166 13.4953 2.26854C13.5609 2.36229 14.7046 3.52479 16.0406 4.86072C18.2109 7.02166 18.4921 7.28416 18.675 7.33572C18.914 7.40135 19.1718 7.36385 19.3593 7.24197C19.7765 6.9701 20.3531 6.05135 20.5828 5.29666C20.7 4.91697 20.7093 4.80447 20.7093 4.17166C20.7093 3.53885 20.7 3.42635 20.5828 3.04666C20.0437 1.27479 18.5671 0.102911 16.7531 0.00447369C16.5093 -0.00490093 16.1859 -0.000213623 16.0312 0.0232239ZM17.175 1.73416C18.5812 2.10447 19.3546 3.4826 18.9656 4.92166C18.8484 5.3576 18.9609 5.43729 17.114 3.59041L15.4265 1.90291L15.5671 1.84666C16.0406 1.65916 16.7156 1.6076 17.175 1.73416Z" fill="#FF5E7D"/>
<path fill-rule="evenodd" clip-rule="evenodd" d="M9.74669 1.34722C9.67169 1.35659 9.43731 1.3894 9.23106 1.41753C8.04513 1.57221 6.79356 2.01284 5.74356 2.65503C5.092 3.04878 4.6045 3.43315 4.02794 4.0144C3.03419 5.00347 2.36856 6.0394 1.9045 7.30034C0.709188 10.5628 1.417 14.1066 3.7795 16.6894L4.09825 17.041L5.40137 18.0863L5.79513 18.3253C7.20138 19.1738 8.767 19.6003 10.4733 19.6003C12.1795 19.6003 13.7451 19.1738 15.1514 18.3253L15.5451 18.0863L16.8483 17.041L17.167 16.6894C18.4842 15.2503 19.2811 13.5535 19.5483 11.6082C19.6373 10.9472 19.6186 9.65347 19.5061 9.00659C19.1639 7.04721 18.3108 5.4019 16.9186 4.0144C15.5217 2.61284 13.8764 1.77378 11.8795 1.43628C11.4529 1.36596 10.042 1.30503 9.74669 1.34722ZM13.0654 3.44722C12.6436 3.29253 11.9404 3.11909 11.4811 3.05815C9.72325 2.83315 8.03575 3.1894 6.56856 4.09409C3.58731 5.9269 2.27013 9.53628 3.38106 12.8457C4.10294 15.0066 5.8045 16.7503 7.942 17.5144C8.82794 17.8332 9.45138 17.9363 10.4733 17.9363C11.4951 17.9363 12.1186 17.8332 13.0045 17.5144C15.142 16.7503 16.8436 15.0066 17.5654 12.8457C18.8498 9.01597 16.867 4.88159 13.0654 3.44722Z" fill="#FF5E7D"/>
</svg>
