<svg width="17" height="23" viewBox="0 0 17 23" fill="none" xmlns="http://www.w3.org/2000/svg">
<path d="M4.72222 5.55833L2.21944 3.01875L3.21111 2.0125L5.71389 4.55208L4.72222 5.55833ZM12.2778 5.55833L11.2861 4.55208L13.7889 2.0125L14.7806 3.01875L12.2778 5.55833ZM7.79167 4.3125V0H9.20833V4.3125H7.79167ZM0.708333 23C0.507639 23 0.33941 22.9311 0.203646 22.7934C0.0678819 22.6556 0 22.4849 0 22.2812V14.5187L2.00694 8.38542C2.08565 8.16181 2.21551 7.98611 2.39653 7.85833C2.57755 7.73056 2.78611 7.66667 3.02222 7.66667H13.9778C14.2139 7.66667 14.4225 7.73056 14.6035 7.85833C14.7845 7.98611 14.9144 8.16181 14.9931 8.38542L17 14.5187V22.2812C17 22.4849 16.9321 22.6556 16.7964 22.7934C16.6606 22.9311 16.4924 23 16.2917 23H15.7958C15.5912 23 15.4259 22.9311 15.3 22.7934C15.1741 22.6556 15.1111 22.4849 15.1111 22.2812V20.9875H1.88889V22.2812C1.88889 22.4849 1.82101 22.6556 1.68524 22.7934C1.54948 22.9311 1.38125 23 1.18056 23H0.708333ZM1.95972 13.0813H15.0403L13.7417 9.10417H3.25833L1.95972 13.0813ZM3.9139 18.3521C4.27963 18.3521 4.58449 18.2263 4.82847 17.9747C5.07245 17.7232 5.19444 17.4177 5.19444 17.0583C5.19444 16.6857 5.07049 16.3689 4.82257 16.108C4.57465 15.8471 4.27361 15.7167 3.91944 15.7167C3.55217 15.7167 3.23997 15.8466 2.98286 16.1063C2.72577 16.3661 2.59722 16.6816 2.59722 17.0527C2.59722 17.4238 2.72523 17.7332 2.98126 17.9807C3.23726 18.2283 3.54814 18.3521 3.9139 18.3521ZM13.1042 18.3521C13.4714 18.3521 13.7836 18.2263 14.0407 17.9747C14.2978 17.7232 14.4264 17.4177 14.4264 17.0583C14.4264 16.6857 14.2984 16.3689 14.0424 16.108C13.7863 15.8471 13.4755 15.7167 13.1097 15.7167C12.744 15.7167 12.4391 15.8466 12.1951 16.1063C11.9512 16.3661 11.8292 16.6816 11.8292 17.0527C11.8292 17.4238 11.9531 17.7332 12.201 17.9807C12.449 18.2283 12.75 18.3521 13.1042 18.3521ZM1.41667 19.55H15.5833V14.5187H1.41667V19.55Z" fill="#FF5E7D"/>
</svg>
