<svg width="20" height="19" viewBox="0 0 20 19" fill="none" xmlns="http://www.w3.org/2000/svg">
<path d="M10 18.9749L8.975 18.0499C7.2122 16.4312 5.75483 15.0349 4.6029 13.8609C3.45097 12.6869 2.53333 11.6374 1.85 10.7124C1.16667 9.7874 0.6875 8.9499 0.4125 8.1999C0.1375 7.4499 0 6.69157 0 5.9249C0 4.42232 0.504167 3.16751 1.5125 2.16048C2.52083 1.15343 3.76667 0.649902 5.25 0.649902C6.2 0.649902 7.07917 0.874902 7.8875 1.3249C8.69583 1.7749 9.4 2.4249 10 3.2749C10.7 2.3749 11.4417 1.7124 12.225 1.2874C13.0083 0.862402 13.85 0.649902 14.75 0.649902C16.2333 0.649902 17.4792 1.15343 18.4875 2.16048C19.4958 3.16751 20 4.42232 20 5.9249C20 6.69157 19.8625 7.4499 19.5875 8.1999C19.3125 8.9499 18.8333 9.7874 18.15 10.7124C17.4667 11.6374 16.549 12.6869 15.3971 13.8609C14.2452 15.0349 12.7878 16.4312 11.025 18.0499L10 18.9749ZM10.0125 17.0105C11.6998 15.4606 13.0883 14.1314 14.1779 13.023C15.2676 11.9147 16.1333 10.9438 16.775 10.1105C17.4167 9.27714 17.8667 8.53435 18.125 7.8821C18.3833 7.22984 18.5125 6.58217 18.5125 5.9391C18.5125 4.83669 18.1625 3.93131 17.4625 3.22298C16.7625 2.51464 15.8644 2.16048 14.7681 2.16048C13.9094 2.16048 13.1146 2.42298 12.3837 2.94798C11.6529 3.47298 11 4.5 10.6125 5.16048L10 6L9.3875 5.16048C9 4.5 8.37208 3.49381 7.64125 2.96048C6.9104 2.42714 6.11561 2.16048 5.25688 2.16048C4.16062 2.16048 3.2625 2.51464 2.5625 3.22298C1.8625 3.93131 1.5125 4.83811 1.5125 5.94338C1.5125 6.58811 1.64167 7.23964 1.9 7.89798C2.15833 8.55631 2.60833 9.30631 3.25 10.148C3.89167 10.9896 4.7625 11.9605 5.8625 13.0605C6.9625 14.1605 8.34583 15.4771 10.0125 17.0105Z" fill="#FF5E7D"/>
</svg>
