<svg width="23" height="21" viewBox="0 0 23 21" fill="none" xmlns="http://www.w3.org/2000/svg">
<path d="M12.65 21H9.61818L9.93182 20.7506C10.1409 20.5844 10.3718 20.405 10.6244 20.2125C10.8771 20.02 11.108 19.8406 11.317 19.6744L11.6307 19.425H12.7023C14.3924 19.425 15.965 18.9175 17.4199 17.9025C18.4756 17.166 19.6712 16.0517 20.5674 14.9207C21.0168 14.3536 20.6187 13.5959 19.8957 13.5651C18.6595 13.5124 17.343 13.4416 16.3352 13.0331C14.889 12.4469 13.6127 11.6025 12.5063 10.5C11.3998 9.3975 10.5591 8.12437 9.98409 6.68062C9.58257 5.67247 9.5294 4.34218 9.4864 3.10091C9.46144 2.38041 8.70956 1.98145 8.14229 2.42637C6.98676 3.33266 5.85534 4.54915 5.1358 5.60437C4.15133 7.04812 3.65909 8.645 3.65909 10.395V10.6969C3.65909 10.8106 3.6678 10.9113 3.68523 10.9987L3.44898 11.0964C3.29148 11.1615 3.11758 11.2296 2.92727 11.3006C2.73696 11.3717 2.56306 11.4397 2.40556 11.5048L2.16932 11.6025C2.13447 11.375 2.11269 11.165 2.10398 10.9725C2.09527 10.78 2.09091 10.5875 2.09091 10.395C2.09091 7.84 2.90114 5.58687 4.52159 3.63562C5.82769 2.0629 7.42245 0.970508 9.30585 0.358454C9.97321 0.141582 10.5823 0.744151 10.5482 1.44504C10.489 2.66408 10.6407 3.86796 11.0034 5.05667C11.5087 6.71278 12.3799 8.16297 13.617 9.40724C14.8542 10.6515 16.296 11.5278 17.9426 12.036C19.1307 12.4027 20.3393 12.555 21.5682 12.4929C22.2654 12.4576 22.8668 13.0596 22.6574 13.7255C22.0591 15.6276 20.9711 17.2375 19.3932 18.5553C17.4417 20.1851 15.1939 21 12.65 21ZM5.22727 19.425H9.93182C10.5126 19.425 11.0063 19.2214 11.4129 18.8143C11.8194 18.4072 12.0227 17.9128 12.0227 17.3312C12.0227 16.7496 11.8236 16.2531 11.4252 15.8419C11.0268 15.4306 10.5465 15.225 9.98409 15.225H8.96477L8.57273 14.3062C8.27652 13.6237 7.8262 13.0812 7.22179 12.6787C6.6174 12.2762 5.95256 12.075 5.22727 12.075C4.23409 12.075 3.37595 12.4338 2.65284 13.1512C1.92973 13.8687 1.56818 14.735 1.56818 15.75C1.56818 16.7708 1.92392 17.6385 2.63541 18.3531C3.34691 19.0677 4.21086 19.425 5.22727 19.425ZM5.22727 21C3.78106 21 2.5483 20.4881 1.52898 19.4644C0.509659 18.4406 0 17.2025 0 15.75C0 14.2975 0.509659 13.0594 1.52898 12.0356C2.5483 11.0119 3.78106 10.5 5.22727 10.5C6.27273 10.5 7.2267 10.7844 8.0892 11.3531C8.9517 11.9219 9.59204 12.6875 10.0102 13.65C11.0034 13.685 11.8485 14.0569 12.5455 14.7656C13.2424 15.4744 13.5909 16.3275 13.5909 17.325C13.5909 18.34 13.2337 19.2062 12.5193 19.9237C11.8049 20.6412 10.9424 21 9.93182 21H5.22727Z" fill="#FF5E7D"/>
</svg>
